ISO-10303-21;
HEADER;
/* Generated by software containing ST-Developer
 * from STEP Tools, Inc. (www.steptools.com) 
 */

FILE_DESCRIPTION(
/* description */ ('',
'CAx-IF Rec.Pracs.---Representation and Presentation of Product Manufa
cturing Information (PMI)---4.0---2014-10-13'),
/* implementation_level */ '2;1');

FILE_NAME(
/* name */ 'Untitled.step',
/* time_stamp */ '2025-02-05T15:30:21+01:00',
/* author */ (''),
/* organization */ (''),
/* preprocessor_version */ 'ST-DEVELOPER v20',
/* originating_system */ 'Autodesk Translation Framework v13.20.0.188',

/* authorisation */ '');

FILE_SCHEMA (('AP242_MANAGED_MODEL_BASED_3D_ENGINEERING_MIM_LF { 1 0 10303 442 1 1 4 }'));
ENDSEC;

DATA;
#10=MECHANICAL_DESIGN_GEOMETRIC_PRESENTATION_REPRESENTATION('',(#38,#39,
#40,#41,#42,#43,#44,#45,#46,#47,#48,#49,#50,#51,#52,#53,#54,#55,#56,#57,
#58,#59,#60,#61,#62,#63,#64,#65,#66,#67,#68),#2193);
#11=ITEM_DEFINED_TRANSFORMATION($,$,#1260,#1368);
#12=(
REPRESENTATION_RELATIONSHIP($,$,#2204,#2203)
REPRESENTATION_RELATIONSHIP_WITH_TRANSFORMATION(#11)
SHAPE_REPRESENTATION_RELATIONSHIP()
);
#13=CONTEXT_DEPENDENT_SHAPE_REPRESENTATION(#12,#2202);
#14=NEXT_ASSEMBLY_USAGE_OCCURRENCE('Component1:1','Component1:1',
'Component1:1',#2206,#2207,'Component1:1');
#15=ELLIPSE('',#1310,0.28284271247462,0.2);
#16=ELLIPSE('',#1311,0.28284271247462,0.2);
#17=ELLIPSE('',#1314,0.28284271247462,0.2);
#18=ELLIPSE('',#1316,0.28284271247462,0.2);
#19=ELLIPSE('',#1319,0.28284271247462,0.2);
#20=ELLIPSE('',#1320,0.28284271247462,0.2);
#21=ELLIPSE('',#1322,0.28284271247462,0.2);
#22=ELLIPSE('',#1325,0.28284271247462,0.2);
#23=ELLIPSE('',#1327,0.28284271247462,0.2);
#24=ELLIPSE('',#1328,0.28284271247462,0.2);
#25=ELLIPSE('',#1331,0.28284271247462,0.2);
#26=ELLIPSE('',#1333,0.28284271247462,0.2);
#27=FACE_BOUND('',#486,.T.);
#28=FACE_BOUND('',#516,.T.);
#29=FACE_BOUND('',#525,.T.);
#30=FACE_BOUND('',#533,.T.);
#31=FACE_BOUND('',#535,.T.);
#32=FACE_BOUND('',#536,.T.);
#33=FACE_BOUND('',#537,.T.);
#34=SHAPE_REPRESENTATION_RELATIONSHIP('SRR','None',#2204,#36);
#35=SHAPE_REPRESENTATION_RELATIONSHIP('SRR','None',#2203,#37);
#36=ADVANCED_BREP_SHAPE_REPRESENTATION('',(#69,#70,#71,#72,#73),#2192);
#37=ADVANCED_BREP_SHAPE_REPRESENTATION('',(#74),#2191);
#38=STYLED_ITEM('',(#2219),#69);
#39=STYLED_ITEM('',(#2219),#70);
#40=STYLED_ITEM('',(#2219),#71);
#41=STYLED_ITEM('',(#2219),#72);
#42=STYLED_ITEM('',(#2219),#73);
#43=STYLED_ITEM('',(#2219),#1194);
#44=STYLED_ITEM('',(#2219),#1195);
#45=STYLED_ITEM('',(#2219),#1196);
#46=STYLED_ITEM('',(#2219),#1197);
#47=STYLED_ITEM('',(#2219),#1198);
#48=STYLED_ITEM('',(#2219),#1199);
#49=STYLED_ITEM('',(#2219),#1200);
#50=STYLED_ITEM('',(#2219),#1201);
#51=STYLED_ITEM('',(#2219),#1202);
#52=STYLED_ITEM('',(#2219),#1203);
#53=STYLED_ITEM('',(#2219),#1204);
#54=STYLED_ITEM('',(#2219),#1205);
#55=STYLED_ITEM('',(#2219),#1206);
#56=STYLED_ITEM('',(#2219),#1207);
#57=STYLED_ITEM('',(#2219),#1209);
#58=STYLED_ITEM('',(#2219),#1210);
#59=STYLED_ITEM('',(#2219),#1211);
#60=STYLED_ITEM('',(#2219),#1212);
#61=STYLED_ITEM('',(#2219),#1213);
#62=STYLED_ITEM('',(#2219),#1214);
#63=STYLED_ITEM('',(#2219),#1215);
#64=STYLED_ITEM('',(#2219),#1222);
#65=STYLED_ITEM('',(#2219),#1223);
#66=STYLED_ITEM('',(#2219),#1229);
#67=STYLED_ITEM('',(#2219),#1230);
#68=STYLED_ITEM('',(#2218),#74);
#69=MANIFOLD_SOLID_BREP('Body1',#1241);
#70=MANIFOLD_SOLID_BREP('Body2',#1242);
#71=MANIFOLD_SOLID_BREP('Body3',#1243);
#72=MANIFOLD_SOLID_BREP('Body4',#1244);
#73=MANIFOLD_SOLID_BREP('Body5',#1245);
#74=MANIFOLD_SOLID_BREP('Body1',#1246);
#75=PLANE('',#1267);
#76=PLANE('',#1268);
#77=PLANE('',#1275);
#78=PLANE('',#1276);
#79=PLANE('',#1283);
#80=PLANE('',#1284);
#81=PLANE('',#1291);
#82=PLANE('',#1292);
#83=PLANE('',#1299);
#84=PLANE('',#1300);
#85=PLANE('',#1304);
#86=PLANE('',#1305);
#87=PLANE('',#1306);
#88=PLANE('',#1307);
#89=PLANE('',#1308);
#90=PLANE('',#1312);
#91=PLANE('',#1313);
#92=PLANE('',#1317);
#93=PLANE('',#1321);
#94=PLANE('',#1323);
#95=PLANE('',#1329);
#96=PLANE('',#1330);
#97=PLANE('',#1334);
#98=PLANE('',#1335);
#99=PLANE('',#1336);
#100=PLANE('',#1337);
#101=PLANE('',#1338);
#102=PLANE('',#1339);
#103=PLANE('',#1340);
#104=PLANE('',#1341);
#105=PLANE('',#1342);
#106=PLANE('',#1343);
#107=PLANE('',#1344);
#108=PLANE('',#1345);
#109=PLANE('',#1346);
#110=PLANE('',#1347);
#111=PLANE('',#1348);
#112=PLANE('',#1349);
#113=PLANE('',#1350);
#114=PLANE('',#1351);
#115=PLANE('',#1352);
#116=PLANE('',#1353);
#117=PLANE('',#1354);
#118=PLANE('',#1355);
#119=PLANE('',#1356);
#120=PLANE('',#1357);
#121=PLANE('',#1358);
#122=PLANE('',#1359);
#123=PLANE('',#1360);
#124=PLANE('',#1361);
#125=PLANE('',#1362);
#126=PLANE('',#1363);
#127=PLANE('',#1364);
#128=PLANE('',#1365);
#129=PLANE('',#1366);
#130=PLANE('',#1367);
#131=LINE('',#1750,#254);
#132=LINE('',#1790,#255);
#133=LINE('',#1830,#256);
#134=LINE('',#1870,#257);
#135=LINE('',#1910,#258);
#136=LINE('',#1918,#259);
#137=LINE('',#1923,#260);
#138=LINE('',#1925,#261);
#139=LINE('',#1927,#262);
#140=LINE('',#1928,#263);
#141=LINE('',#1931,#264);
#142=LINE('',#1933,#265);
#143=LINE('',#1934,#266);
#144=LINE('',#1937,#267);
#145=LINE('',#1938,#268);
#146=LINE('',#1941,#269);
#147=LINE('',#1943,#270);
#148=LINE('',#1945,#271);
#149=LINE('',#1946,#272);
#150=LINE('',#1953,#273);
#151=LINE('',#1956,#274);
#152=LINE('',#1959,#275);
#153=LINE('',#1961,#276);
#154=LINE('',#1962,#277);
#155=LINE('',#1965,#278);
#156=LINE('',#1967,#279);
#157=LINE('',#1969,#280);
#158=LINE('',#1974,#281);
#159=LINE('',#1977,#282);
#160=LINE('',#1979,#283);
#161=LINE('',#1981,#284);
#162=LINE('',#1982,#285);
#163=LINE('',#1988,#286);
#164=LINE('',#1991,#287);
#165=LINE('',#1994,#288);
#166=LINE('',#1998,#289);
#167=LINE('',#2000,#290);
#168=LINE('',#2001,#291);
#169=LINE('',#2004,#292);
#170=LINE('',#2005,#293);
#171=LINE('',#2009,#294);
#172=LINE('',#2015,#295);
#173=LINE('',#2018,#296);
#174=LINE('',#2021,#297);
#175=LINE('',#2023,#298);
#176=LINE('',#2024,#299);
#177=LINE('',#2027,#300);
#178=LINE('',#2029,#301);
#179=LINE('',#2031,#302);
#180=LINE('',#2036,#303);
#181=LINE('',#2039,#304);
#182=LINE('',#2041,#305);
#183=LINE('',#2043,#306);
#184=LINE('',#2044,#307);
#185=LINE('',#2047,#308);
#186=LINE('',#2049,#309);
#187=LINE('',#2051,#310);
#188=LINE('',#2052,#311);
#189=LINE('',#2055,#312);
#190=LINE('',#2056,#313);
#191=LINE('',#2059,#314);
#192=LINE('',#2061,#315);
#193=LINE('',#2063,#316);
#194=LINE('',#2064,#317);
#195=LINE('',#2066,#318);
#196=LINE('',#2069,#319);
#197=LINE('',#2071,#320);
#198=LINE('',#2073,#321);
#199=LINE('',#2074,#322);
#200=LINE('',#2076,#323);
#201=LINE('',#2078,#324);
#202=LINE('',#2080,#325);
#203=LINE('',#2084,#326);
#204=LINE('',#2086,#327);
#205=LINE('',#2088,#328);
#206=LINE('',#2089,#329);
#207=LINE('',#2092,#330);
#208=LINE('',#2094,#331);
#209=LINE('',#2095,#332);
#210=LINE('',#2098,#333);
#211=LINE('',#2100,#334);
#212=LINE('',#2101,#335);
#213=LINE('',#2103,#336);
#214=LINE('',#2104,#337);
#215=LINE('',#2108,#338);
#216=LINE('',#2109,#339);
#217=LINE('',#2112,#340);
#218=LINE('',#2113,#341);
#219=LINE('',#2115,#342);
#220=LINE('',#2119,#343);
#221=LINE('',#2121,#344);
#222=LINE('',#2123,#345);
#223=LINE('',#2124,#346);
#224=LINE('',#2127,#347);
#225=LINE('',#2129,#348);
#226=LINE('',#2130,#349);
#227=LINE('',#2133,#350);
#228=LINE('',#2135,#351);
#229=LINE('',#2136,#352);
#230=LINE('',#2138,#353);
#231=LINE('',#2139,#354);
#232=LINE('',#2142,#355);
#233=LINE('',#2144,#356);
#234=LINE('',#2148,#357);
#235=LINE('',#2150,#358);
#236=LINE('',#2152,#359);
#237=LINE('',#2153,#360);
#238=LINE('',#2156,#361);
#239=LINE('',#2158,#362);
#240=LINE('',#2159,#363);
#241=LINE('',#2162,#364);
#242=LINE('',#2164,#365);
#243=LINE('',#2165,#366);
#244=LINE('',#2167,#367);
#245=LINE('',#2168,#368);
#246=LINE('',#2172,#369);
#247=LINE('',#2174,#370);
#248=LINE('',#2175,#371);
#249=LINE('',#2178,#372);
#250=LINE('',#2179,#373);
#251=LINE('',#2182,#374);
#252=LINE('',#2183,#375);
#253=LINE('',#2185,#376);
#254=VECTOR('',#1383,1.05);
#255=VECTOR('',#1400,1.05);
#256=VECTOR('',#1417,0.55);
#257=VECTOR('',#1434,1.05);
#258=VECTOR('',#1451,0.55);
#259=VECTOR('',#1462,0.5);
#260=VECTOR('',#1467,10.);
#261=VECTOR('',#1468,10.);
#262=VECTOR('',#1469,10.);
#263=VECTOR('',#1470,10.);
#264=VECTOR('',#1473,10.);
#265=VECTOR('',#1474,10.);
#266=VECTOR('',#1475,10.);
#267=VECTOR('',#1478,10.);
#268=VECTOR('',#1479,10.);
#269=VECTOR('',#1482,10.);
#270=VECTOR('',#1483,10.);
#271=VECTOR('',#1484,10.);
#272=VECTOR('',#1485,10.);
#273=VECTOR('',#1492,10.);
#274=VECTOR('',#1495,10.);
#275=VECTOR('',#1498,10.);
#276=VECTOR('',#1499,10.);
#277=VECTOR('',#1500,10.);
#278=VECTOR('',#1503,10.);
#279=VECTOR('',#1504,10.);
#280=VECTOR('',#1505,10.);
#281=VECTOR('',#1512,10.);
#282=VECTOR('',#1515,10.);
#283=VECTOR('',#1516,10.);
#284=VECTOR('',#1517,10.);
#285=VECTOR('',#1518,10.);
#286=VECTOR('',#1523,10.);
#287=VECTOR('',#1526,10.);
#288=VECTOR('',#1529,10.);
#289=VECTOR('',#1532,10.);
#290=VECTOR('',#1533,10.);
#291=VECTOR('',#1534,10.);
#292=VECTOR('',#1537,10.);
#293=VECTOR('',#1538,10.);
#294=VECTOR('',#1543,10.);
#295=VECTOR('',#1548,10.);
#296=VECTOR('',#1551,10.);
#297=VECTOR('',#1554,10.);
#298=VECTOR('',#1555,10.);
#299=VECTOR('',#1556,10.);
#300=VECTOR('',#1559,10.);
#301=VECTOR('',#1560,10.);
#302=VECTOR('',#1561,10.);
#303=VECTOR('',#1568,10.);
#304=VECTOR('',#1571,10.);
#305=VECTOR('',#1572,10.);
#306=VECTOR('',#1573,10.);
#307=VECTOR('',#1574,10.);
#308=VECTOR('',#1577,10.);
#309=VECTOR('',#1578,10.);
#310=VECTOR('',#1579,10.);
#311=VECTOR('',#1580,10.);
#312=VECTOR('',#1583,10.);
#313=VECTOR('',#1584,10.);
#314=VECTOR('',#1587,10.);
#315=VECTOR('',#1588,10.);
#316=VECTOR('',#1589,10.);
#317=VECTOR('',#1590,10.);
#318=VECTOR('',#1593,10.);
#319=VECTOR('',#1596,10.);
#320=VECTOR('',#1597,10.);
#321=VECTOR('',#1598,10.);
#322=VECTOR('',#1599,10.);
#323=VECTOR('',#1602,10.);
#324=VECTOR('',#1605,10.);
#325=VECTOR('',#1608,10.);
#326=VECTOR('',#1611,10.);
#327=VECTOR('',#1612,10.);
#328=VECTOR('',#1613,10.);
#329=VECTOR('',#1614,10.);
#330=VECTOR('',#1617,10.);
#331=VECTOR('',#1618,10.);
#332=VECTOR('',#1619,10.);
#333=VECTOR('',#1622,10.);
#334=VECTOR('',#1623,10.);
#335=VECTOR('',#1624,10.);
#336=VECTOR('',#1627,10.);
#337=VECTOR('',#1628,10.);
#338=VECTOR('',#1633,10.);
#339=VECTOR('',#1634,10.);
#340=VECTOR('',#1637,10.);
#341=VECTOR('',#1638,10.);
#342=VECTOR('',#1641,10.);
#343=VECTOR('',#1644,10.);
#344=VECTOR('',#1645,10.);
#345=VECTOR('',#1646,10.);
#346=VECTOR('',#1647,10.);
#347=VECTOR('',#1650,10.);
#348=VECTOR('',#1651,10.);
#349=VECTOR('',#1652,10.);
#350=VECTOR('',#1655,10.);
#351=VECTOR('',#1656,10.);
#352=VECTOR('',#1657,10.);
#353=VECTOR('',#1660,10.);
#354=VECTOR('',#1661,10.);
#355=VECTOR('',#1666,10.);
#356=VECTOR('',#1669,10.);
#357=VECTOR('',#1672,10.);
#358=VECTOR('',#1673,10.);
#359=VECTOR('',#1674,10.);
#360=VECTOR('',#1675,10.);
#361=VECTOR('',#1678,10.);
#362=VECTOR('',#1679,10.);
#363=VECTOR('',#1680,10.);
#364=VECTOR('',#1683,10.);
#365=VECTOR('',#1684,10.);
#366=VECTOR('',#1685,10.);
#367=VECTOR('',#1688,10.);
#368=VECTOR('',#1689,10.);
#369=VECTOR('',#1694,10.);
#370=VECTOR('',#1695,10.);
#371=VECTOR('',#1696,10.);
#372=VECTOR('',#1699,10.);
#373=VECTOR('',#1700,10.);
#374=VECTOR('',#1703,10.);
#375=VECTOR('',#1704,10.);
#376=VECTOR('',#1707,10.);
#377=CYLINDRICAL_SURFACE('',#1265,1.05);
#378=CYLINDRICAL_SURFACE('',#1273,1.05);
#379=CYLINDRICAL_SURFACE('',#1281,0.55);
#380=CYLINDRICAL_SURFACE('',#1289,1.05);
#381=CYLINDRICAL_SURFACE('',#1297,0.55);
#382=CYLINDRICAL_SURFACE('',#1301,0.5);
#383=CYLINDRICAL_SURFACE('',#1309,0.2);
#384=CYLINDRICAL_SURFACE('',#1315,0.2);
#385=CYLINDRICAL_SURFACE('',#1318,0.2);
#386=CYLINDRICAL_SURFACE('',#1324,0.2);
#387=CYLINDRICAL_SURFACE('',#1326,0.2);
#388=CYLINDRICAL_SURFACE('',#1332,0.2);
#389=FACE_OUTER_BOUND('',#462,.T.);
#390=FACE_OUTER_BOUND('',#463,.T.);
#391=FACE_OUTER_BOUND('',#464,.T.);
#392=FACE_OUTER_BOUND('',#465,.T.);
#393=FACE_OUTER_BOUND('',#466,.T.);
#394=FACE_OUTER_BOUND('',#467,.T.);
#395=FACE_OUTER_BOUND('',#468,.T.);
#396=FACE_OUTER_BOUND('',#469,.T.);
#397=FACE_OUTER_BOUND('',#470,.T.);
#398=FACE_OUTER_BOUND('',#471,.T.);
#399=FACE_OUTER_BOUND('',#472,.T.);
#400=FACE_OUTER_BOUND('',#473,.T.);
#401=FACE_OUTER_BOUND('',#474,.T.);
#402=FACE_OUTER_BOUND('',#475,.T.);
#403=FACE_OUTER_BOUND('',#476,.T.);
#404=FACE_OUTER_BOUND('',#477,.T.);
#405=FACE_OUTER_BOUND('',#478,.T.);
#406=FACE_OUTER_BOUND('',#479,.T.);
#407=FACE_OUTER_BOUND('',#480,.T.);
#408=FACE_OUTER_BOUND('',#481,.T.);
#409=FACE_OUTER_BOUND('',#482,.T.);
#410=FACE_OUTER_BOUND('',#483,.T.);
#411=FACE_OUTER_BOUND('',#484,.T.);
#412=FACE_OUTER_BOUND('',#485,.T.);
#413=FACE_OUTER_BOUND('',#487,.T.);
#414=FACE_OUTER_BOUND('',#488,.T.);
#415=FACE_OUTER_BOUND('',#489,.T.);
#416=FACE_OUTER_BOUND('',#490,.T.);
#417=FACE_OUTER_BOUND('',#491,.T.);
#418=FACE_OUTER_BOUND('',#492,.T.);
#419=FACE_OUTER_BOUND('',#493,.T.);
#420=FACE_OUTER_BOUND('',#494,.T.);
#421=FACE_OUTER_BOUND('',#495,.T.);
#422=FACE_OUTER_BOUND('',#496,.T.);
#423=FACE_OUTER_BOUND('',#497,.T.);
#424=FACE_OUTER_BOUND('',#498,.T.);
#425=FACE_OUTER_BOUND('',#499,.T.);
#426=FACE_OUTER_BOUND('',#500,.T.);
#427=FACE_OUTER_BOUND('',#501,.T.);
#428=FACE_OUTER_BOUND('',#502,.T.);
#429=FACE_OUTER_BOUND('',#503,.T.);
#430=FACE_OUTER_BOUND('',#504,.T.);
#431=FACE_OUTER_BOUND('',#505,.T.);
#432=FACE_OUTER_BOUND('',#506,.T.);
#433=FACE_OUTER_BOUND('',#507,.T.);
#434=FACE_OUTER_BOUND('',#508,.T.);
#435=FACE_OUTER_BOUND('',#509,.T.);
#436=FACE_OUTER_BOUND('',#510,.T.);
#437=FACE_OUTER_BOUND('',#511,.T.);
#438=FACE_OUTER_BOUND('',#512,.T.);
#439=FACE_OUTER_BOUND('',#513,.T.);
#440=FACE_OUTER_BOUND('',#514,.T.);
#441=FACE_OUTER_BOUND('',#515,.T.);
#442=FACE_OUTER_BOUND('',#517,.T.);
#443=FACE_OUTER_BOUND('',#518,.T.);
#444=FACE_OUTER_BOUND('',#519,.T.);
#445=FACE_OUTER_BOUND('',#520,.T.);
#446=FACE_OUTER_BOUND('',#521,.T.);
#447=FACE_OUTER_BOUND('',#522,.T.);
#448=FACE_OUTER_BOUND('',#523,.T.);
#449=FACE_OUTER_BOUND('',#524,.T.);
#450=FACE_OUTER_BOUND('',#526,.T.);
#451=FACE_OUTER_BOUND('',#527,.T.);
#452=FACE_OUTER_BOUND('',#528,.T.);
#453=FACE_OUTER_BOUND('',#529,.T.);
#454=FACE_OUTER_BOUND('',#530,.T.);
#455=FACE_OUTER_BOUND('',#531,.T.);
#456=FACE_OUTER_BOUND('',#532,.T.);
#457=FACE_OUTER_BOUND('',#534,.T.);
#458=FACE_OUTER_BOUND('',#538,.T.);
#459=FACE_OUTER_BOUND('',#539,.T.);
#460=FACE_OUTER_BOUND('',#540,.T.);
#461=FACE_OUTER_BOUND('',#541,.T.);
#462=EDGE_LOOP('',(#839,#840,#841,#842,#843));
#463=EDGE_LOOP('',(#844,#845,#846,#847,#848));
#464=EDGE_LOOP('',(#849));
#465=EDGE_LOOP('',(#850));
#466=EDGE_LOOP('',(#851,#852,#853,#854,#855));
#467=EDGE_LOOP('',(#856,#857,#858,#859,#860));
#468=EDGE_LOOP('',(#861));
#469=EDGE_LOOP('',(#862));
#470=EDGE_LOOP('',(#863,#864,#865,#866,#867));
#471=EDGE_LOOP('',(#868,#869,#870,#871,#872));
#472=EDGE_LOOP('',(#873));
#473=EDGE_LOOP('',(#874));
#474=EDGE_LOOP('',(#875,#876,#877,#878,#879));
#475=EDGE_LOOP('',(#880,#881,#882,#883,#884));
#476=EDGE_LOOP('',(#885));
#477=EDGE_LOOP('',(#886));
#478=EDGE_LOOP('',(#887,#888,#889,#890,#891));
#479=EDGE_LOOP('',(#892,#893,#894,#895,#896));
#480=EDGE_LOOP('',(#897));
#481=EDGE_LOOP('',(#898));
#482=EDGE_LOOP('',(#899,#900,#901,#902));
#483=EDGE_LOOP('',(#903,#904,#905,#906));
#484=EDGE_LOOP('',(#907,#908,#909,#910));
#485=EDGE_LOOP('',(#911,#912,#913,#914));
#486=EDGE_LOOP('',(#915));
#487=EDGE_LOOP('',(#916,#917,#918,#919,#920,#921));
#488=EDGE_LOOP('',(#922));
#489=EDGE_LOOP('',(#923,#924,#925,#926));
#490=EDGE_LOOP('',(#927,#928,#929,#930));
#491=EDGE_LOOP('',(#931,#932,#933,#934,#935,#936));
#492=EDGE_LOOP('',(#937,#938,#939,#940));
#493=EDGE_LOOP('',(#941,#942,#943,#944,#945,#946));
#494=EDGE_LOOP('',(#947,#948,#949,#950));
#495=EDGE_LOOP('',(#951,#952,#953,#954,#955,#956));
#496=EDGE_LOOP('',(#957,#958,#959,#960));
#497=EDGE_LOOP('',(#961,#962,#963,#964));
#498=EDGE_LOOP('',(#965,#966,#967,#968));
#499=EDGE_LOOP('',(#969,#970,#971,#972));
#500=EDGE_LOOP('',(#973,#974,#975,#976,#977,#978));
#501=EDGE_LOOP('',(#979,#980,#981,#982));
#502=EDGE_LOOP('',(#983,#984,#985,#986,#987,#988));
#503=EDGE_LOOP('',(#989,#990,#991,#992,#993,#994));
#504=EDGE_LOOP('',(#995,#996,#997,#998,#999,#1000));
#505=EDGE_LOOP('',(#1001,#1002,#1003,#1004,#1005,#1006));
#506=EDGE_LOOP('',(#1007,#1008,#1009,#1010,#1011,#1012));
#507=EDGE_LOOP('',(#1013,#1014,#1015,#1016,#1017,#1018));
#508=EDGE_LOOP('',(#1019,#1020,#1021,#1022,#1023,#1024));
#509=EDGE_LOOP('',(#1025,#1026,#1027,#1028));
#510=EDGE_LOOP('',(#1029,#1030,#1031,#1032));
#511=EDGE_LOOP('',(#1033,#1034,#1035,#1036));
#512=EDGE_LOOP('',(#1037,#1038,#1039,#1040));
#513=EDGE_LOOP('',(#1041,#1042,#1043,#1044));
#514=EDGE_LOOP('',(#1045,#1046,#1047,#1048));
#515=EDGE_LOOP('',(#1049,#1050,#1051,#1052));
#516=EDGE_LOOP('',(#1053,#1054,#1055,#1056));
#517=EDGE_LOOP('',(#1057,#1058,#1059,#1060));
#518=EDGE_LOOP('',(#1061,#1062,#1063,#1064));
#519=EDGE_LOOP('',(#1065,#1066,#1067,#1068,#1069,#1070));
#520=EDGE_LOOP('',(#1071,#1072,#1073,#1074));
#521=EDGE_LOOP('',(#1075,#1076,#1077,#1078));
#522=EDGE_LOOP('',(#1079,#1080,#1081,#1082));
#523=EDGE_LOOP('',(#1083,#1084,#1085,#1086));
#524=EDGE_LOOP('',(#1087,#1088,#1089,#1090));
#525=EDGE_LOOP('',(#1091,#1092,#1093,#1094));
#526=EDGE_LOOP('',(#1095,#1096,#1097,#1098));
#527=EDGE_LOOP('',(#1099,#1100,#1101,#1102));
#528=EDGE_LOOP('',(#1103,#1104,#1105,#1106));
#529=EDGE_LOOP('',(#1107,#1108,#1109,#1110));
#530=EDGE_LOOP('',(#1111,#1112,#1113,#1114));
#531=EDGE_LOOP('',(#1115,#1116,#1117,#1118));
#532=EDGE_LOOP('',(#1119,#1120,#1121,#1122));
#533=EDGE_LOOP('',(#1123,#1124,#1125,#1126));
#534=EDGE_LOOP('',(#1127,#1128,#1129,#1130,#1131,#1132));
#535=EDGE_LOOP('',(#1133,#1134,#1135,#1136));
#536=EDGE_LOOP('',(#1137,#1138,#1139,#1140));
#537=EDGE_LOOP('',(#1141,#1142,#1143,#1144));
#538=EDGE_LOOP('',(#1145,#1146,#1147,#1148));
#539=EDGE_LOOP('',(#1149,#1150,#1151,#1152));
#540=EDGE_LOOP('',(#1153,#1154,#1155,#1156,#1157,#1158));
#541=EDGE_LOOP('',(#1159,#1160,#1161,#1162));
#542=CIRCLE('',#1261,0.15);
#543=CIRCLE('',#1262,0.9);
#544=CIRCLE('',#1263,1.05);
#545=CIRCLE('',#1264,1.05);
#546=CIRCLE('',#1266,1.05);
#547=CIRCLE('',#1269,0.15);
#548=CIRCLE('',#1270,0.9);
#549=CIRCLE('',#1271,1.05);
#550=CIRCLE('',#1272,1.05);
#551=CIRCLE('',#1274,1.05);
#552=CIRCLE('',#1277,0.15);
#553=CIRCLE('',#1278,0.4);
#554=CIRCLE('',#1279,0.55);
#555=CIRCLE('',#1280,0.55);
#556=CIRCLE('',#1282,0.55);
#557=CIRCLE('',#1285,0.15);
#558=CIRCLE('',#1286,0.9);
#559=CIRCLE('',#1287,1.05);
#560=CIRCLE('',#1288,1.05);
#561=CIRCLE('',#1290,1.05);
#562=CIRCLE('',#1293,0.15);
#563=CIRCLE('',#1294,0.4);
#564=CIRCLE('',#1295,0.55);
#565=CIRCLE('',#1296,0.55);
#566=CIRCLE('',#1298,0.55);
#567=CIRCLE('',#1302,0.5);
#568=CIRCLE('',#1303,0.5);
#569=VERTEX_POINT('',#1741);
#570=VERTEX_POINT('',#1743);
#571=VERTEX_POINT('',#1745);
#572=VERTEX_POINT('',#1749);
#573=VERTEX_POINT('',#1781);
#574=VERTEX_POINT('',#1783);
#575=VERTEX_POINT('',#1785);
#576=VERTEX_POINT('',#1789);
#577=VERTEX_POINT('',#1821);
#578=VERTEX_POINT('',#1823);
#579=VERTEX_POINT('',#1825);
#580=VERTEX_POINT('',#1829);
#581=VERTEX_POINT('',#1861);
#582=VERTEX_POINT('',#1863);
#583=VERTEX_POINT('',#1865);
#584=VERTEX_POINT('',#1869);
#585=VERTEX_POINT('',#1901);
#586=VERTEX_POINT('',#1903);
#587=VERTEX_POINT('',#1905);
#588=VERTEX_POINT('',#1909);
#589=VERTEX_POINT('',#1915);
#590=VERTEX_POINT('',#1917);
#591=VERTEX_POINT('',#1921);
#592=VERTEX_POINT('',#1922);
#593=VERTEX_POINT('',#1924);
#594=VERTEX_POINT('',#1926);
#595=VERTEX_POINT('',#1930);
#596=VERTEX_POINT('',#1932);
#597=VERTEX_POINT('',#1936);
#598=VERTEX_POINT('',#1940);
#599=VERTEX_POINT('',#1942);
#600=VERTEX_POINT('',#1944);
#601=VERTEX_POINT('',#1949);
#602=VERTEX_POINT('',#1950);
#603=VERTEX_POINT('',#1952);
#604=VERTEX_POINT('',#1954);
#605=VERTEX_POINT('',#1958);
#606=VERTEX_POINT('',#1960);
#607=VERTEX_POINT('',#1964);
#608=VERTEX_POINT('',#1966);
#609=VERTEX_POINT('',#1968);
#610=VERTEX_POINT('',#1972);
#611=VERTEX_POINT('',#1976);
#612=VERTEX_POINT('',#1978);
#613=VERTEX_POINT('',#1980);
#614=VERTEX_POINT('',#1984);
#615=VERTEX_POINT('',#1985);
#616=VERTEX_POINT('',#1987);
#617=VERTEX_POINT('',#1989);
#618=VERTEX_POINT('',#1993);
#619=VERTEX_POINT('',#1995);
#620=VERTEX_POINT('',#1997);
#621=VERTEX_POINT('',#1999);
#622=VERTEX_POINT('',#2003);
#623=VERTEX_POINT('',#2007);
#624=VERTEX_POINT('',#2011);
#625=VERTEX_POINT('',#2012);
#626=VERTEX_POINT('',#2014);
#627=VERTEX_POINT('',#2016);
#628=VERTEX_POINT('',#2020);
#629=VERTEX_POINT('',#2022);
#630=VERTEX_POINT('',#2026);
#631=VERTEX_POINT('',#2028);
#632=VERTEX_POINT('',#2030);
#633=VERTEX_POINT('',#2034);
#634=VERTEX_POINT('',#2038);
#635=VERTEX_POINT('',#2040);
#636=VERTEX_POINT('',#2042);
#637=VERTEX_POINT('',#2046);
#638=VERTEX_POINT('',#2048);
#639=VERTEX_POINT('',#2050);
#640=VERTEX_POINT('',#2054);
#641=VERTEX_POINT('',#2058);
#642=VERTEX_POINT('',#2060);
#643=VERTEX_POINT('',#2062);
#644=VERTEX_POINT('',#2068);
#645=VERTEX_POINT('',#2070);
#646=VERTEX_POINT('',#2072);
#647=VERTEX_POINT('',#2082);
#648=VERTEX_POINT('',#2083);
#649=VERTEX_POINT('',#2085);
#650=VERTEX_POINT('',#2087);
#651=VERTEX_POINT('',#2091);
#652=VERTEX_POINT('',#2093);
#653=VERTEX_POINT('',#2097);
#654=VERTEX_POINT('',#2099);
#655=VERTEX_POINT('',#2107);
#656=VERTEX_POINT('',#2111);
#657=VERTEX_POINT('',#2117);
#658=VERTEX_POINT('',#2118);
#659=VERTEX_POINT('',#2120);
#660=VERTEX_POINT('',#2122);
#661=VERTEX_POINT('',#2126);
#662=VERTEX_POINT('',#2128);
#663=VERTEX_POINT('',#2132);
#664=VERTEX_POINT('',#2134);
#665=VERTEX_POINT('',#2146);
#666=VERTEX_POINT('',#2147);
#667=VERTEX_POINT('',#2149);
#668=VERTEX_POINT('',#2151);
#669=VERTEX_POINT('',#2155);
#670=VERTEX_POINT('',#2157);
#671=VERTEX_POINT('',#2161);
#672=VERTEX_POINT('',#2163);
#673=VERTEX_POINT('',#2171);
#674=VERTEX_POINT('',#2173);
#675=VERTEX_POINT('',#2177);
#676=VERTEX_POINT('',#2181);
#677=EDGE_CURVE('',#569,#569,#542,.T.);
#678=EDGE_CURVE('',#569,#570,#543,.T.);
#679=EDGE_CURVE('',#570,#571,#544,.T.);
#680=EDGE_CURVE('',#571,#570,#545,.T.);
#681=EDGE_CURVE('',#571,#572,#131,.T.);
#682=EDGE_CURVE('',#572,#572,#546,.T.);
#683=EDGE_CURVE('',#573,#573,#547,.T.);
#684=EDGE_CURVE('',#573,#574,#548,.T.);
#685=EDGE_CURVE('',#574,#575,#549,.T.);
#686=EDGE_CURVE('',#575,#574,#550,.T.);
#687=EDGE_CURVE('',#575,#576,#132,.T.);
#688=EDGE_CURVE('',#576,#576,#551,.T.);
#689=EDGE_CURVE('',#577,#577,#552,.T.);
#690=EDGE_CURVE('',#577,#578,#553,.T.);
#691=EDGE_CURVE('',#578,#579,#554,.T.);
#692=EDGE_CURVE('',#579,#578,#555,.T.);
#693=EDGE_CURVE('',#579,#580,#133,.T.);
#694=EDGE_CURVE('',#580,#580,#556,.T.);
#695=EDGE_CURVE('',#581,#581,#557,.T.);
#696=EDGE_CURVE('',#581,#582,#558,.T.);
#697=EDGE_CURVE('',#582,#583,#559,.T.);
#698=EDGE_CURVE('',#583,#582,#560,.T.);
#699=EDGE_CURVE('',#583,#584,#134,.T.);
#700=EDGE_CURVE('',#584,#584,#561,.T.);
#701=EDGE_CURVE('',#585,#585,#562,.T.);
#702=EDGE_CURVE('',#585,#586,#563,.T.);
#703=EDGE_CURVE('',#586,#587,#564,.T.);
#704=EDGE_CURVE('',#587,#586,#565,.T.);
#705=EDGE_CURVE('',#587,#588,#135,.T.);
#706=EDGE_CURVE('',#588,#588,#566,.T.);
#707=EDGE_CURVE('',#589,#589,#567,.T.);
#708=EDGE_CURVE('',#589,#590,#136,.T.);
#709=EDGE_CURVE('',#590,#590,#568,.T.);
#710=EDGE_CURVE('',#591,#592,#137,.T.);
#711=EDGE_CURVE('',#593,#591,#138,.T.);
#712=EDGE_CURVE('',#593,#594,#139,.T.);
#713=EDGE_CURVE('',#592,#594,#140,.T.);
#714=EDGE_CURVE('',#592,#595,#141,.T.);
#715=EDGE_CURVE('',#594,#596,#142,.T.);
#716=EDGE_CURVE('',#595,#596,#143,.T.);
#717=EDGE_CURVE('',#597,#593,#144,.T.);
#718=EDGE_CURVE('',#596,#597,#145,.T.);
#719=EDGE_CURVE('',#598,#591,#146,.T.);
#720=EDGE_CURVE('',#599,#598,#147,.T.);
#721=EDGE_CURVE('',#600,#599,#148,.T.);
#722=EDGE_CURVE('',#600,#597,#149,.T.);
#723=EDGE_CURVE('',#601,#602,#15,.T.);
#724=EDGE_CURVE('',#602,#603,#150,.T.);
#725=EDGE_CURVE('',#603,#604,#16,.T.);
#726=EDGE_CURVE('',#604,#601,#151,.T.);
#727=EDGE_CURVE('',#605,#602,#152,.T.);
#728=EDGE_CURVE('',#606,#605,#153,.T.);
#729=EDGE_CURVE('',#603,#606,#154,.T.);
#730=EDGE_CURVE('',#601,#607,#155,.T.);
#731=EDGE_CURVE('',#607,#608,#156,.T.);
#732=EDGE_CURVE('',#608,#609,#157,.T.);
#733=EDGE_CURVE('',#605,#609,#17,.T.);
#734=EDGE_CURVE('',#610,#606,#18,.T.);
#735=EDGE_CURVE('',#609,#610,#158,.T.);
#736=EDGE_CURVE('',#608,#611,#159,.T.);
#737=EDGE_CURVE('',#611,#612,#160,.T.);
#738=EDGE_CURVE('',#613,#612,#161,.T.);
#739=EDGE_CURVE('',#610,#613,#162,.T.);
#740=EDGE_CURVE('',#614,#615,#19,.T.);
#741=EDGE_CURVE('',#615,#616,#163,.T.);
#742=EDGE_CURVE('',#616,#617,#20,.T.);
#743=EDGE_CURVE('',#617,#614,#164,.T.);
#744=EDGE_CURVE('',#616,#618,#165,.T.);
#745=EDGE_CURVE('',#619,#618,#21,.T.);
#746=EDGE_CURVE('',#619,#620,#166,.T.);
#747=EDGE_CURVE('',#620,#621,#167,.T.);
#748=EDGE_CURVE('',#621,#617,#168,.T.);
#749=EDGE_CURVE('',#622,#615,#169,.T.);
#750=EDGE_CURVE('',#618,#622,#170,.T.);
#751=EDGE_CURVE('',#622,#623,#22,.T.);
#752=EDGE_CURVE('',#623,#619,#171,.T.);
#753=EDGE_CURVE('',#624,#625,#23,.T.);
#754=EDGE_CURVE('',#625,#626,#172,.T.);
#755=EDGE_CURVE('',#626,#627,#24,.T.);
#756=EDGE_CURVE('',#627,#624,#173,.T.);
#757=EDGE_CURVE('',#628,#625,#174,.T.);
#758=EDGE_CURVE('',#629,#628,#175,.T.);
#759=EDGE_CURVE('',#626,#629,#176,.T.);
#760=EDGE_CURVE('',#624,#630,#177,.T.);
#761=EDGE_CURVE('',#630,#631,#178,.T.);
#762=EDGE_CURVE('',#631,#632,#179,.T.);
#763=EDGE_CURVE('',#628,#632,#25,.T.);
#764=EDGE_CURVE('',#633,#629,#26,.T.);
#765=EDGE_CURVE('',#632,#633,#180,.T.);
#766=EDGE_CURVE('',#631,#634,#181,.T.);
#767=EDGE_CURVE('',#634,#635,#182,.T.);
#768=EDGE_CURVE('',#636,#635,#183,.T.);
#769=EDGE_CURVE('',#633,#636,#184,.T.);
#770=EDGE_CURVE('',#637,#623,#185,.T.);
#771=EDGE_CURVE('',#637,#638,#186,.T.);
#772=EDGE_CURVE('',#638,#639,#187,.T.);
#773=EDGE_CURVE('',#620,#639,#188,.T.);
#774=EDGE_CURVE('',#614,#640,#189,.T.);
#775=EDGE_CURVE('',#640,#637,#190,.T.);
#776=EDGE_CURVE('',#641,#627,#191,.T.);
#777=EDGE_CURVE('',#641,#642,#192,.T.);
#778=EDGE_CURVE('',#642,#643,#193,.T.);
#779=EDGE_CURVE('',#630,#643,#194,.T.);
#780=EDGE_CURVE('',#636,#641,#195,.T.);
#781=EDGE_CURVE('',#644,#604,#196,.T.);
#782=EDGE_CURVE('',#644,#645,#197,.T.);
#783=EDGE_CURVE('',#645,#646,#198,.T.);
#784=EDGE_CURVE('',#607,#646,#199,.T.);
#785=EDGE_CURVE('',#613,#644,#200,.T.);
#786=EDGE_CURVE('',#643,#634,#201,.T.);
#787=EDGE_CURVE('',#635,#642,#202,.T.);
#788=EDGE_CURVE('',#647,#648,#203,.T.);
#789=EDGE_CURVE('',#647,#649,#204,.T.);
#790=EDGE_CURVE('',#649,#650,#205,.T.);
#791=EDGE_CURVE('',#648,#650,#206,.T.);
#792=EDGE_CURVE('',#651,#647,#207,.T.);
#793=EDGE_CURVE('',#651,#652,#208,.T.);
#794=EDGE_CURVE('',#652,#649,#209,.T.);
#795=EDGE_CURVE('',#653,#651,#210,.T.);
#796=EDGE_CURVE('',#653,#654,#211,.T.);
#797=EDGE_CURVE('',#654,#652,#212,.T.);
#798=EDGE_CURVE('',#648,#653,#213,.T.);
#799=EDGE_CURVE('',#650,#654,#214,.T.);
#800=EDGE_CURVE('',#639,#655,#215,.T.);
#801=EDGE_CURVE('',#621,#655,#216,.T.);
#802=EDGE_CURVE('',#640,#656,#217,.T.);
#803=EDGE_CURVE('',#656,#638,#218,.T.);
#804=EDGE_CURVE('',#655,#656,#219,.T.);
#805=EDGE_CURVE('',#657,#658,#220,.T.);
#806=EDGE_CURVE('',#657,#659,#221,.T.);
#807=EDGE_CURVE('',#659,#660,#222,.T.);
#808=EDGE_CURVE('',#658,#660,#223,.T.);
#809=EDGE_CURVE('',#661,#657,#224,.T.);
#810=EDGE_CURVE('',#661,#662,#225,.T.);
#811=EDGE_CURVE('',#662,#659,#226,.T.);
#812=EDGE_CURVE('',#663,#661,#227,.T.);
#813=EDGE_CURVE('',#663,#664,#228,.T.);
#814=EDGE_CURVE('',#664,#662,#229,.T.);
#815=EDGE_CURVE('',#658,#663,#230,.T.);
#816=EDGE_CURVE('',#660,#664,#231,.T.);
#817=EDGE_CURVE('',#646,#611,#232,.T.);
#818=EDGE_CURVE('',#612,#645,#233,.T.);
#819=EDGE_CURVE('',#665,#666,#234,.T.);
#820=EDGE_CURVE('',#665,#667,#235,.T.);
#821=EDGE_CURVE('',#667,#668,#236,.T.);
#822=EDGE_CURVE('',#666,#668,#237,.T.);
#823=EDGE_CURVE('',#669,#665,#238,.T.);
#824=EDGE_CURVE('',#669,#670,#239,.T.);
#825=EDGE_CURVE('',#670,#667,#240,.T.);
#826=EDGE_CURVE('',#671,#669,#241,.T.);
#827=EDGE_CURVE('',#671,#672,#242,.T.);
#828=EDGE_CURVE('',#672,#670,#243,.T.);
#829=EDGE_CURVE('',#666,#671,#244,.T.);
#830=EDGE_CURVE('',#668,#672,#245,.T.);
#831=EDGE_CURVE('',#595,#673,#246,.T.);
#832=EDGE_CURVE('',#673,#674,#247,.T.);
#833=EDGE_CURVE('',#674,#598,#248,.T.);
#834=EDGE_CURVE('',#599,#675,#249,.T.);
#835=EDGE_CURVE('',#675,#674,#250,.T.);
#836=EDGE_CURVE('',#675,#676,#251,.T.);
#837=EDGE_CURVE('',#676,#673,#252,.T.);
#838=EDGE_CURVE('',#676,#600,#253,.T.);
#839=ORIENTED_EDGE('',*,*,#677,.T.);
#840=ORIENTED_EDGE('',*,*,#678,.T.);
#841=ORIENTED_EDGE('',*,*,#679,.T.);
#842=ORIENTED_EDGE('',*,*,#680,.T.);
#843=ORIENTED_EDGE('',*,*,#678,.F.);
#844=ORIENTED_EDGE('',*,*,#680,.F.);
#845=ORIENTED_EDGE('',*,*,#681,.T.);
#846=ORIENTED_EDGE('',*,*,#682,.T.);
#847=ORIENTED_EDGE('',*,*,#681,.F.);
#848=ORIENTED_EDGE('',*,*,#679,.F.);
#849=ORIENTED_EDGE('',*,*,#677,.F.);
#850=ORIENTED_EDGE('',*,*,#682,.F.);
#851=ORIENTED_EDGE('',*,*,#683,.T.);
#852=ORIENTED_EDGE('',*,*,#684,.T.);
#853=ORIENTED_EDGE('',*,*,#685,.T.);
#854=ORIENTED_EDGE('',*,*,#686,.T.);
#855=ORIENTED_EDGE('',*,*,#684,.F.);
#856=ORIENTED_EDGE('',*,*,#686,.F.);
#857=ORIENTED_EDGE('',*,*,#687,.T.);
#858=ORIENTED_EDGE('',*,*,#688,.T.);
#859=ORIENTED_EDGE('',*,*,#687,.F.);
#860=ORIENTED_EDGE('',*,*,#685,.F.);
#861=ORIENTED_EDGE('',*,*,#683,.F.);
#862=ORIENTED_EDGE('',*,*,#688,.F.);
#863=ORIENTED_EDGE('',*,*,#689,.T.);
#864=ORIENTED_EDGE('',*,*,#690,.T.);
#865=ORIENTED_EDGE('',*,*,#691,.T.);
#866=ORIENTED_EDGE('',*,*,#692,.T.);
#867=ORIENTED_EDGE('',*,*,#690,.F.);
#868=ORIENTED_EDGE('',*,*,#692,.F.);
#869=ORIENTED_EDGE('',*,*,#693,.T.);
#870=ORIENTED_EDGE('',*,*,#694,.T.);
#871=ORIENTED_EDGE('',*,*,#693,.F.);
#872=ORIENTED_EDGE('',*,*,#691,.F.);
#873=ORIENTED_EDGE('',*,*,#689,.F.);
#874=ORIENTED_EDGE('',*,*,#694,.F.);
#875=ORIENTED_EDGE('',*,*,#695,.T.);
#876=ORIENTED_EDGE('',*,*,#696,.T.);
#877=ORIENTED_EDGE('',*,*,#697,.T.);
#878=ORIENTED_EDGE('',*,*,#698,.T.);
#879=ORIENTED_EDGE('',*,*,#696,.F.);
#880=ORIENTED_EDGE('',*,*,#698,.F.);
#881=ORIENTED_EDGE('',*,*,#699,.T.);
#882=ORIENTED_EDGE('',*,*,#700,.T.);
#883=ORIENTED_EDGE('',*,*,#699,.F.);
#884=ORIENTED_EDGE('',*,*,#697,.F.);
#885=ORIENTED_EDGE('',*,*,#695,.F.);
#886=ORIENTED_EDGE('',*,*,#700,.F.);
#887=ORIENTED_EDGE('',*,*,#701,.T.);
#888=ORIENTED_EDGE('',*,*,#702,.T.);
#889=ORIENTED_EDGE('',*,*,#703,.T.);
#890=ORIENTED_EDGE('',*,*,#704,.T.);
#891=ORIENTED_EDGE('',*,*,#702,.F.);
#892=ORIENTED_EDGE('',*,*,#704,.F.);
#893=ORIENTED_EDGE('',*,*,#705,.T.);
#894=ORIENTED_EDGE('',*,*,#706,.T.);
#895=ORIENTED_EDGE('',*,*,#705,.F.);
#896=ORIENTED_EDGE('',*,*,#703,.F.);
#897=ORIENTED_EDGE('',*,*,#701,.F.);
#898=ORIENTED_EDGE('',*,*,#706,.F.);
#899=ORIENTED_EDGE('',*,*,#707,.F.);
#900=ORIENTED_EDGE('',*,*,#708,.T.);
#901=ORIENTED_EDGE('',*,*,#709,.T.);
#902=ORIENTED_EDGE('',*,*,#708,.F.);
#903=ORIENTED_EDGE('',*,*,#710,.F.);
#904=ORIENTED_EDGE('',*,*,#711,.F.);
#905=ORIENTED_EDGE('',*,*,#712,.T.);
#906=ORIENTED_EDGE('',*,*,#713,.F.);
#907=ORIENTED_EDGE('',*,*,#714,.F.);
#908=ORIENTED_EDGE('',*,*,#713,.T.);
#909=ORIENTED_EDGE('',*,*,#715,.T.);
#910=ORIENTED_EDGE('',*,*,#716,.F.);
#911=ORIENTED_EDGE('',*,*,#715,.F.);
#912=ORIENTED_EDGE('',*,*,#712,.F.);
#913=ORIENTED_EDGE('',*,*,#717,.F.);
#914=ORIENTED_EDGE('',*,*,#718,.F.);
#915=ORIENTED_EDGE('',*,*,#709,.F.);
#916=ORIENTED_EDGE('',*,*,#717,.T.);
#917=ORIENTED_EDGE('',*,*,#711,.T.);
#918=ORIENTED_EDGE('',*,*,#719,.F.);
#919=ORIENTED_EDGE('',*,*,#720,.F.);
#920=ORIENTED_EDGE('',*,*,#721,.F.);
#921=ORIENTED_EDGE('',*,*,#722,.T.);
#922=ORIENTED_EDGE('',*,*,#707,.T.);
#923=ORIENTED_EDGE('',*,*,#723,.T.);
#924=ORIENTED_EDGE('',*,*,#724,.T.);
#925=ORIENTED_EDGE('',*,*,#725,.T.);
#926=ORIENTED_EDGE('',*,*,#726,.T.);
#927=ORIENTED_EDGE('',*,*,#724,.F.);
#928=ORIENTED_EDGE('',*,*,#727,.F.);
#929=ORIENTED_EDGE('',*,*,#728,.F.);
#930=ORIENTED_EDGE('',*,*,#729,.F.);
#931=ORIENTED_EDGE('',*,*,#723,.F.);
#932=ORIENTED_EDGE('',*,*,#730,.T.);
#933=ORIENTED_EDGE('',*,*,#731,.T.);
#934=ORIENTED_EDGE('',*,*,#732,.T.);
#935=ORIENTED_EDGE('',*,*,#733,.F.);
#936=ORIENTED_EDGE('',*,*,#727,.T.);
#937=ORIENTED_EDGE('',*,*,#734,.T.);
#938=ORIENTED_EDGE('',*,*,#728,.T.);
#939=ORIENTED_EDGE('',*,*,#733,.T.);
#940=ORIENTED_EDGE('',*,*,#735,.T.);
#941=ORIENTED_EDGE('',*,*,#735,.F.);
#942=ORIENTED_EDGE('',*,*,#732,.F.);
#943=ORIENTED_EDGE('',*,*,#736,.T.);
#944=ORIENTED_EDGE('',*,*,#737,.T.);
#945=ORIENTED_EDGE('',*,*,#738,.F.);
#946=ORIENTED_EDGE('',*,*,#739,.F.);
#947=ORIENTED_EDGE('',*,*,#740,.T.);
#948=ORIENTED_EDGE('',*,*,#741,.T.);
#949=ORIENTED_EDGE('',*,*,#742,.T.);
#950=ORIENTED_EDGE('',*,*,#743,.T.);
#951=ORIENTED_EDGE('',*,*,#742,.F.);
#952=ORIENTED_EDGE('',*,*,#744,.T.);
#953=ORIENTED_EDGE('',*,*,#745,.F.);
#954=ORIENTED_EDGE('',*,*,#746,.T.);
#955=ORIENTED_EDGE('',*,*,#747,.T.);
#956=ORIENTED_EDGE('',*,*,#748,.T.);
#957=ORIENTED_EDGE('',*,*,#741,.F.);
#958=ORIENTED_EDGE('',*,*,#749,.F.);
#959=ORIENTED_EDGE('',*,*,#750,.F.);
#960=ORIENTED_EDGE('',*,*,#744,.F.);
#961=ORIENTED_EDGE('',*,*,#745,.T.);
#962=ORIENTED_EDGE('',*,*,#750,.T.);
#963=ORIENTED_EDGE('',*,*,#751,.T.);
#964=ORIENTED_EDGE('',*,*,#752,.T.);
#965=ORIENTED_EDGE('',*,*,#753,.T.);
#966=ORIENTED_EDGE('',*,*,#754,.T.);
#967=ORIENTED_EDGE('',*,*,#755,.T.);
#968=ORIENTED_EDGE('',*,*,#756,.T.);
#969=ORIENTED_EDGE('',*,*,#754,.F.);
#970=ORIENTED_EDGE('',*,*,#757,.F.);
#971=ORIENTED_EDGE('',*,*,#758,.F.);
#972=ORIENTED_EDGE('',*,*,#759,.F.);
#973=ORIENTED_EDGE('',*,*,#753,.F.);
#974=ORIENTED_EDGE('',*,*,#760,.T.);
#975=ORIENTED_EDGE('',*,*,#761,.T.);
#976=ORIENTED_EDGE('',*,*,#762,.T.);
#977=ORIENTED_EDGE('',*,*,#763,.F.);
#978=ORIENTED_EDGE('',*,*,#757,.T.);
#979=ORIENTED_EDGE('',*,*,#764,.T.);
#980=ORIENTED_EDGE('',*,*,#758,.T.);
#981=ORIENTED_EDGE('',*,*,#763,.T.);
#982=ORIENTED_EDGE('',*,*,#765,.T.);
#983=ORIENTED_EDGE('',*,*,#765,.F.);
#984=ORIENTED_EDGE('',*,*,#762,.F.);
#985=ORIENTED_EDGE('',*,*,#766,.T.);
#986=ORIENTED_EDGE('',*,*,#767,.T.);
#987=ORIENTED_EDGE('',*,*,#768,.F.);
#988=ORIENTED_EDGE('',*,*,#769,.F.);
#989=ORIENTED_EDGE('',*,*,#752,.F.);
#990=ORIENTED_EDGE('',*,*,#770,.F.);
#991=ORIENTED_EDGE('',*,*,#771,.T.);
#992=ORIENTED_EDGE('',*,*,#772,.T.);
#993=ORIENTED_EDGE('',*,*,#773,.F.);
#994=ORIENTED_EDGE('',*,*,#746,.F.);
#995=ORIENTED_EDGE('',*,*,#740,.F.);
#996=ORIENTED_EDGE('',*,*,#774,.T.);
#997=ORIENTED_EDGE('',*,*,#775,.T.);
#998=ORIENTED_EDGE('',*,*,#770,.T.);
#999=ORIENTED_EDGE('',*,*,#751,.F.);
#1000=ORIENTED_EDGE('',*,*,#749,.T.);
#1001=ORIENTED_EDGE('',*,*,#756,.F.);
#1002=ORIENTED_EDGE('',*,*,#776,.F.);
#1003=ORIENTED_EDGE('',*,*,#777,.T.);
#1004=ORIENTED_EDGE('',*,*,#778,.T.);
#1005=ORIENTED_EDGE('',*,*,#779,.F.);
#1006=ORIENTED_EDGE('',*,*,#760,.F.);
#1007=ORIENTED_EDGE('',*,*,#755,.F.);
#1008=ORIENTED_EDGE('',*,*,#759,.T.);
#1009=ORIENTED_EDGE('',*,*,#764,.F.);
#1010=ORIENTED_EDGE('',*,*,#769,.T.);
#1011=ORIENTED_EDGE('',*,*,#780,.T.);
#1012=ORIENTED_EDGE('',*,*,#776,.T.);
#1013=ORIENTED_EDGE('',*,*,#726,.F.);
#1014=ORIENTED_EDGE('',*,*,#781,.F.);
#1015=ORIENTED_EDGE('',*,*,#782,.T.);
#1016=ORIENTED_EDGE('',*,*,#783,.T.);
#1017=ORIENTED_EDGE('',*,*,#784,.F.);
#1018=ORIENTED_EDGE('',*,*,#730,.F.);
#1019=ORIENTED_EDGE('',*,*,#725,.F.);
#1020=ORIENTED_EDGE('',*,*,#729,.T.);
#1021=ORIENTED_EDGE('',*,*,#734,.F.);
#1022=ORIENTED_EDGE('',*,*,#739,.T.);
#1023=ORIENTED_EDGE('',*,*,#785,.T.);
#1024=ORIENTED_EDGE('',*,*,#781,.T.);
#1025=ORIENTED_EDGE('',*,*,#761,.F.);
#1026=ORIENTED_EDGE('',*,*,#779,.T.);
#1027=ORIENTED_EDGE('',*,*,#786,.T.);
#1028=ORIENTED_EDGE('',*,*,#766,.F.);
#1029=ORIENTED_EDGE('',*,*,#780,.F.);
#1030=ORIENTED_EDGE('',*,*,#768,.T.);
#1031=ORIENTED_EDGE('',*,*,#787,.T.);
#1032=ORIENTED_EDGE('',*,*,#777,.F.);
#1033=ORIENTED_EDGE('',*,*,#788,.F.);
#1034=ORIENTED_EDGE('',*,*,#789,.T.);
#1035=ORIENTED_EDGE('',*,*,#790,.T.);
#1036=ORIENTED_EDGE('',*,*,#791,.F.);
#1037=ORIENTED_EDGE('',*,*,#792,.F.);
#1038=ORIENTED_EDGE('',*,*,#793,.T.);
#1039=ORIENTED_EDGE('',*,*,#794,.T.);
#1040=ORIENTED_EDGE('',*,*,#789,.F.);
#1041=ORIENTED_EDGE('',*,*,#795,.F.);
#1042=ORIENTED_EDGE('',*,*,#796,.T.);
#1043=ORIENTED_EDGE('',*,*,#797,.T.);
#1044=ORIENTED_EDGE('',*,*,#793,.F.);
#1045=ORIENTED_EDGE('',*,*,#798,.F.);
#1046=ORIENTED_EDGE('',*,*,#791,.T.);
#1047=ORIENTED_EDGE('',*,*,#799,.T.);
#1048=ORIENTED_EDGE('',*,*,#796,.F.);
#1049=ORIENTED_EDGE('',*,*,#799,.F.);
#1050=ORIENTED_EDGE('',*,*,#790,.F.);
#1051=ORIENTED_EDGE('',*,*,#794,.F.);
#1052=ORIENTED_EDGE('',*,*,#797,.F.);
#1053=ORIENTED_EDGE('',*,*,#787,.F.);
#1054=ORIENTED_EDGE('',*,*,#767,.F.);
#1055=ORIENTED_EDGE('',*,*,#786,.F.);
#1056=ORIENTED_EDGE('',*,*,#778,.F.);
#1057=ORIENTED_EDGE('',*,*,#747,.F.);
#1058=ORIENTED_EDGE('',*,*,#773,.T.);
#1059=ORIENTED_EDGE('',*,*,#800,.T.);
#1060=ORIENTED_EDGE('',*,*,#801,.F.);
#1061=ORIENTED_EDGE('',*,*,#775,.F.);
#1062=ORIENTED_EDGE('',*,*,#802,.T.);
#1063=ORIENTED_EDGE('',*,*,#803,.T.);
#1064=ORIENTED_EDGE('',*,*,#771,.F.);
#1065=ORIENTED_EDGE('',*,*,#743,.F.);
#1066=ORIENTED_EDGE('',*,*,#748,.F.);
#1067=ORIENTED_EDGE('',*,*,#801,.T.);
#1068=ORIENTED_EDGE('',*,*,#804,.T.);
#1069=ORIENTED_EDGE('',*,*,#802,.F.);
#1070=ORIENTED_EDGE('',*,*,#774,.F.);
#1071=ORIENTED_EDGE('',*,*,#805,.F.);
#1072=ORIENTED_EDGE('',*,*,#806,.T.);
#1073=ORIENTED_EDGE('',*,*,#807,.T.);
#1074=ORIENTED_EDGE('',*,*,#808,.F.);
#1075=ORIENTED_EDGE('',*,*,#809,.F.);
#1076=ORIENTED_EDGE('',*,*,#810,.T.);
#1077=ORIENTED_EDGE('',*,*,#811,.T.);
#1078=ORIENTED_EDGE('',*,*,#806,.F.);
#1079=ORIENTED_EDGE('',*,*,#812,.F.);
#1080=ORIENTED_EDGE('',*,*,#813,.T.);
#1081=ORIENTED_EDGE('',*,*,#814,.T.);
#1082=ORIENTED_EDGE('',*,*,#810,.F.);
#1083=ORIENTED_EDGE('',*,*,#815,.F.);
#1084=ORIENTED_EDGE('',*,*,#808,.T.);
#1085=ORIENTED_EDGE('',*,*,#816,.T.);
#1086=ORIENTED_EDGE('',*,*,#813,.F.);
#1087=ORIENTED_EDGE('',*,*,#816,.F.);
#1088=ORIENTED_EDGE('',*,*,#807,.F.);
#1089=ORIENTED_EDGE('',*,*,#811,.F.);
#1090=ORIENTED_EDGE('',*,*,#814,.F.);
#1091=ORIENTED_EDGE('',*,*,#804,.F.);
#1092=ORIENTED_EDGE('',*,*,#800,.F.);
#1093=ORIENTED_EDGE('',*,*,#772,.F.);
#1094=ORIENTED_EDGE('',*,*,#803,.F.);
#1095=ORIENTED_EDGE('',*,*,#731,.F.);
#1096=ORIENTED_EDGE('',*,*,#784,.T.);
#1097=ORIENTED_EDGE('',*,*,#817,.T.);
#1098=ORIENTED_EDGE('',*,*,#736,.F.);
#1099=ORIENTED_EDGE('',*,*,#785,.F.);
#1100=ORIENTED_EDGE('',*,*,#738,.T.);
#1101=ORIENTED_EDGE('',*,*,#818,.T.);
#1102=ORIENTED_EDGE('',*,*,#782,.F.);
#1103=ORIENTED_EDGE('',*,*,#819,.F.);
#1104=ORIENTED_EDGE('',*,*,#820,.T.);
#1105=ORIENTED_EDGE('',*,*,#821,.T.);
#1106=ORIENTED_EDGE('',*,*,#822,.F.);
#1107=ORIENTED_EDGE('',*,*,#823,.F.);
#1108=ORIENTED_EDGE('',*,*,#824,.T.);
#1109=ORIENTED_EDGE('',*,*,#825,.T.);
#1110=ORIENTED_EDGE('',*,*,#820,.F.);
#1111=ORIENTED_EDGE('',*,*,#826,.F.);
#1112=ORIENTED_EDGE('',*,*,#827,.T.);
#1113=ORIENTED_EDGE('',*,*,#828,.T.);
#1114=ORIENTED_EDGE('',*,*,#824,.F.);
#1115=ORIENTED_EDGE('',*,*,#829,.F.);
#1116=ORIENTED_EDGE('',*,*,#822,.T.);
#1117=ORIENTED_EDGE('',*,*,#830,.T.);
#1118=ORIENTED_EDGE('',*,*,#827,.F.);
#1119=ORIENTED_EDGE('',*,*,#830,.F.);
#1120=ORIENTED_EDGE('',*,*,#821,.F.);
#1121=ORIENTED_EDGE('',*,*,#825,.F.);
#1122=ORIENTED_EDGE('',*,*,#828,.F.);
#1123=ORIENTED_EDGE('',*,*,#737,.F.);
#1124=ORIENTED_EDGE('',*,*,#817,.F.);
#1125=ORIENTED_EDGE('',*,*,#783,.F.);
#1126=ORIENTED_EDGE('',*,*,#818,.F.);
#1127=ORIENTED_EDGE('',*,*,#714,.T.);
#1128=ORIENTED_EDGE('',*,*,#831,.T.);
#1129=ORIENTED_EDGE('',*,*,#832,.T.);
#1130=ORIENTED_EDGE('',*,*,#833,.T.);
#1131=ORIENTED_EDGE('',*,*,#719,.T.);
#1132=ORIENTED_EDGE('',*,*,#710,.T.);
#1133=ORIENTED_EDGE('',*,*,#819,.T.);
#1134=ORIENTED_EDGE('',*,*,#829,.T.);
#1135=ORIENTED_EDGE('',*,*,#826,.T.);
#1136=ORIENTED_EDGE('',*,*,#823,.T.);
#1137=ORIENTED_EDGE('',*,*,#805,.T.);
#1138=ORIENTED_EDGE('',*,*,#815,.T.);
#1139=ORIENTED_EDGE('',*,*,#812,.T.);
#1140=ORIENTED_EDGE('',*,*,#809,.T.);
#1141=ORIENTED_EDGE('',*,*,#788,.T.);
#1142=ORIENTED_EDGE('',*,*,#798,.T.);
#1143=ORIENTED_EDGE('',*,*,#795,.T.);
#1144=ORIENTED_EDGE('',*,*,#792,.T.);
#1145=ORIENTED_EDGE('',*,*,#834,.F.);
#1146=ORIENTED_EDGE('',*,*,#720,.T.);
#1147=ORIENTED_EDGE('',*,*,#833,.F.);
#1148=ORIENTED_EDGE('',*,*,#835,.F.);
#1149=ORIENTED_EDGE('',*,*,#836,.F.);
#1150=ORIENTED_EDGE('',*,*,#835,.T.);
#1151=ORIENTED_EDGE('',*,*,#832,.F.);
#1152=ORIENTED_EDGE('',*,*,#837,.F.);
#1153=ORIENTED_EDGE('',*,*,#718,.T.);
#1154=ORIENTED_EDGE('',*,*,#722,.F.);
#1155=ORIENTED_EDGE('',*,*,#838,.F.);
#1156=ORIENTED_EDGE('',*,*,#837,.T.);
#1157=ORIENTED_EDGE('',*,*,#831,.F.);
#1158=ORIENTED_EDGE('',*,*,#716,.T.);
#1159=ORIENTED_EDGE('',*,*,#721,.T.);
#1160=ORIENTED_EDGE('',*,*,#834,.T.);
#1161=ORIENTED_EDGE('',*,*,#836,.T.);
#1162=ORIENTED_EDGE('',*,*,#838,.T.);
#1163=(
BOUNDED_SURFACE()
B_SPLINE_SURFACE(2,2,((#1714,#1715,#1716,#1717,#1718,#1719,#1720,#1721,
#1722),(#1723,#1724,#1725,#1726,#1727,#1728,#1729,#1730,#1731),(#1732,#1733,
#1734,#1735,#1736,#1737,#1738,#1739,#1740)),.UNSPECIFIED.,.F.,.T.,.F.)
B_SPLINE_SURFACE_WITH_KNOTS((3,3),(3,2,2,2,3),(0.,1.5707963267949),(-3.14159265358979,
-1.5707963267949,0.,1.5707963267949,3.14159265358979),.UNSPECIFIED.)
GEOMETRIC_REPRESENTATION_ITEM()
RATIONAL_B_SPLINE_SURFACE(((1.,0.707106781186548,1.,0.707106781186548,1.,
0.707106781186548,1.,0.707106781186548,1.),(0.707106781186546,0.499999999999999,
0.707106781186546,0.499999999999999,0.707106781186546,0.499999999999999,
0.707106781186546,0.499999999999999,0.707106781186546),(1.,0.707106781186548,
1.,0.707106781186548,1.,0.707106781186548,1.,0.707106781186548,1.)))
REPRESENTATION_ITEM('')
SURFACE()
);
#1164=(
BOUNDED_SURFACE()
B_SPLINE_SURFACE(2,2,((#1754,#1755,#1756,#1757,#1758,#1759,#1760,#1761,
#1762),(#1763,#1764,#1765,#1766,#1767,#1768,#1769,#1770,#1771),(#1772,#1773,
#1774,#1775,#1776,#1777,#1778,#1779,#1780)),.UNSPECIFIED.,.F.,.T.,.F.)
B_SPLINE_SURFACE_WITH_KNOTS((3,3),(3,2,2,2,3),(0.,1.5707963267949),(-3.14159265358979,
-1.5707963267949,0.,1.5707963267949,3.14159265358979),.UNSPECIFIED.)
GEOMETRIC_REPRESENTATION_ITEM()
RATIONAL_B_SPLINE_SURFACE(((1.,0.707106781186548,1.,0.707106781186548,1.,
0.707106781186548,1.,0.707106781186548,1.),(0.707106781186548,0.5,0.707106781186548,
0.5,0.707106781186548,0.5,0.707106781186548,0.5,0.707106781186548),(1.,
0.707106781186548,1.,0.707106781186548,1.,0.707106781186548,1.,0.707106781186548,
1.)))
REPRESENTATION_ITEM('')
SURFACE()
);
#1165=(
BOUNDED_SURFACE()
B_SPLINE_SURFACE(2,2,((#1794,#1795,#1796,#1797,#1798,#1799,#1800,#1801,
#1802),(#1803,#1804,#1805,#1806,#1807,#1808,#1809,#1810,#1811),(#1812,#1813,
#1814,#1815,#1816,#1817,#1818,#1819,#1820)),.UNSPECIFIED.,.F.,.T.,.F.)
B_SPLINE_SURFACE_WITH_KNOTS((3,3),(3,2,2,2,3),(0.,1.5707963267949),(-3.14159265358979,
-1.5707963267949,0.,1.5707963267949,3.14159265358979),.UNSPECIFIED.)
GEOMETRIC_REPRESENTATION_ITEM()
RATIONAL_B_SPLINE_SURFACE(((1.,0.707106781186548,1.,0.707106781186548,1.,
0.707106781186548,1.,0.707106781186548,1.),(0.707106781186551,0.500000000000003,
0.707106781186551,0.500000000000003,0.707106781186551,0.500000000000003,
0.707106781186551,0.500000000000003,0.707106781186551),(1.,0.707106781186548,
1.,0.707106781186548,1.,0.707106781186548,1.,0.707106781186548,1.)))
REPRESENTATION_ITEM('')
SURFACE()
);
#1166=(
BOUNDED_SURFACE()
B_SPLINE_SURFACE(2,2,((#1834,#1835,#1836,#1837,#1838,#1839,#1840,#1841,
#1842),(#1843,#1844,#1845,#1846,#1847,#1848,#1849,#1850,#1851),(#1852,#1853,
#1854,#1855,#1856,#1857,#1858,#1859,#1860)),.UNSPECIFIED.,.F.,.T.,.F.)
B_SPLINE_SURFACE_WITH_KNOTS((3,3),(3,2,2,2,3),(0.,1.5707963267949),(-3.14159265358979,
-1.5707963267949,0.,1.5707963267949,3.14159265358979),.UNSPECIFIED.)
GEOMETRIC_REPRESENTATION_ITEM()
RATIONAL_B_SPLINE_SURFACE(((1.,0.707106781186548,1.,0.707106781186548,1.,
0.707106781186548,1.,0.707106781186548,1.),(0.707106781186549,0.500000000000001,
0.707106781186549,0.500000000000001,0.707106781186549,0.500000000000001,
0.707106781186549,0.500000000000001,0.707106781186549),(1.,0.707106781186548,
1.,0.707106781186548,1.,0.707106781186548,1.,0.707106781186548,1.)))
REPRESENTATION_ITEM('')
SURFACE()
);
#1167=(
BOUNDED_SURFACE()
B_SPLINE_SURFACE(2,2,((#1874,#1875,#1876,#1877,#1878,#1879,#1880,#1881,
#1882),(#1883,#1884,#1885,#1886,#1887,#1888,#1889,#1890,#1891),(#1892,#1893,
#1894,#1895,#1896,#1897,#1898,#1899,#1900)),.UNSPECIFIED.,.F.,.T.,.F.)
B_SPLINE_SURFACE_WITH_KNOTS((3,3),(3,2,2,2,3),(0.,1.5707963267949),(-3.14159265358979,
-1.5707963267949,0.,1.5707963267949,3.14159265358979),.UNSPECIFIED.)
GEOMETRIC_REPRESENTATION_ITEM()
RATIONAL_B_SPLINE_SURFACE(((1.,0.707106781186548,1.,0.707106781186548,1.,
0.707106781186548,1.,0.707106781186548,1.),(0.707106781186551,0.500000000000003,
0.707106781186551,0.500000000000003,0.707106781186551,0.500000000000003,
0.707106781186551,0.500000000000003,0.707106781186551),(1.,0.707106781186548,
1.,0.707106781186548,1.,0.707106781186548,1.,0.707106781186548,1.)))
REPRESENTATION_ITEM('')
SURFACE()
);
#1168=ADVANCED_FACE('',(#389),#1163,.F.);
#1169=ADVANCED_FACE('',(#390),#377,.T.);
#1170=ADVANCED_FACE('',(#391),#75,.T.);
#1171=ADVANCED_FACE('',(#392),#76,.F.);
#1172=ADVANCED_FACE('',(#393),#1164,.F.);
#1173=ADVANCED_FACE('',(#394),#378,.T.);
#1174=ADVANCED_FACE('',(#395),#77,.T.);
#1175=ADVANCED_FACE('',(#396),#78,.F.);
#1176=ADVANCED_FACE('',(#397),#1165,.F.);
#1177=ADVANCED_FACE('',(#398),#379,.T.);
#1178=ADVANCED_FACE('',(#399),#79,.T.);
#1179=ADVANCED_FACE('',(#400),#80,.F.);
#1180=ADVANCED_FACE('',(#401),#1166,.F.);
#1181=ADVANCED_FACE('',(#402),#380,.T.);
#1182=ADVANCED_FACE('',(#403),#81,.T.);
#1183=ADVANCED_FACE('',(#404),#82,.F.);
#1184=ADVANCED_FACE('',(#405),#1167,.F.);
#1185=ADVANCED_FACE('',(#406),#381,.T.);
#1186=ADVANCED_FACE('',(#407),#83,.T.);
#1187=ADVANCED_FACE('',(#408),#84,.F.);
#1188=ADVANCED_FACE('',(#409),#382,.T.);
#1189=ADVANCED_FACE('',(#410),#85,.F.);
#1190=ADVANCED_FACE('',(#411),#86,.F.);
#1191=ADVANCED_FACE('',(#412,#27),#87,.T.);
#1192=ADVANCED_FACE('',(#413),#88,.T.);
#1193=ADVANCED_FACE('',(#414),#89,.T.);
#1194=ADVANCED_FACE('',(#415),#383,.T.);
#1195=ADVANCED_FACE('',(#416),#90,.T.);
#1196=ADVANCED_FACE('',(#417),#91,.T.);
#1197=ADVANCED_FACE('',(#418),#384,.T.);
#1198=ADVANCED_FACE('',(#419),#92,.F.);
#1199=ADVANCED_FACE('',(#420),#385,.T.);
#1200=ADVANCED_FACE('',(#421),#93,.T.);
#1201=ADVANCED_FACE('',(#422),#94,.T.);
#1202=ADVANCED_FACE('',(#423),#386,.T.);
#1203=ADVANCED_FACE('',(#424),#387,.T.);
#1204=ADVANCED_FACE('',(#425),#95,.T.);
#1205=ADVANCED_FACE('',(#426),#96,.T.);
#1206=ADVANCED_FACE('',(#427),#388,.T.);
#1207=ADVANCED_FACE('',(#428),#97,.F.);
#1208=ADVANCED_FACE('',(#429),#98,.F.);
#1209=ADVANCED_FACE('',(#430),#99,.T.);
#1210=ADVANCED_FACE('',(#431),#100,.F.);
#1211=ADVANCED_FACE('',(#432),#101,.T.);
#1212=ADVANCED_FACE('',(#433),#102,.F.);
#1213=ADVANCED_FACE('',(#434),#103,.T.);
#1214=ADVANCED_FACE('',(#435),#104,.F.);
#1215=ADVANCED_FACE('',(#436),#105,.F.);
#1216=ADVANCED_FACE('',(#437),#106,.F.);
#1217=ADVANCED_FACE('',(#438),#107,.F.);
#1218=ADVANCED_FACE('',(#439),#108,.F.);
#1219=ADVANCED_FACE('',(#440),#109,.F.);
#1220=ADVANCED_FACE('',(#441,#28),#110,.F.);
#1221=ADVANCED_FACE('',(#442),#111,.F.);
#1222=ADVANCED_FACE('',(#443),#112,.F.);
#1223=ADVANCED_FACE('',(#444),#113,.F.);
#1224=ADVANCED_FACE('',(#445),#114,.F.);
#1225=ADVANCED_FACE('',(#446),#115,.F.);
#1226=ADVANCED_FACE('',(#447),#116,.F.);
#1227=ADVANCED_FACE('',(#448),#117,.F.);
#1228=ADVANCED_FACE('',(#449,#29),#118,.F.);
#1229=ADVANCED_FACE('',(#450),#119,.F.);
#1230=ADVANCED_FACE('',(#451),#120,.F.);
#1231=ADVANCED_FACE('',(#452),#121,.F.);
#1232=ADVANCED_FACE('',(#453),#122,.F.);
#1233=ADVANCED_FACE('',(#454),#123,.F.);
#1234=ADVANCED_FACE('',(#455),#124,.F.);
#1235=ADVANCED_FACE('',(#456,#30),#125,.F.);
#1236=ADVANCED_FACE('',(#457,#31,#32,#33),#126,.T.);
#1237=ADVANCED_FACE('',(#458),#127,.T.);
#1238=ADVANCED_FACE('',(#459),#128,.T.);
#1239=ADVANCED_FACE('',(#460),#129,.T.);
#1240=ADVANCED_FACE('',(#461),#130,.F.);
#1241=CLOSED_SHELL('',(#1168,#1169,#1170,#1171));
#1242=CLOSED_SHELL('',(#1172,#1173,#1174,#1175));
#1243=CLOSED_SHELL('',(#1176,#1177,#1178,#1179));
#1244=CLOSED_SHELL('',(#1180,#1181,#1182,#1183));
#1245=CLOSED_SHELL('',(#1184,#1185,#1186,#1187));
#1246=CLOSED_SHELL('',(#1188,#1189,#1190,#1191,#1192,#1193,#1194,#1195,
#1196,#1197,#1198,#1199,#1200,#1201,#1202,#1203,#1204,#1205,#1206,#1207,
#1208,#1209,#1210,#1211,#1212,#1213,#1214,#1215,#1216,#1217,#1218,#1219,
#1220,#1221,#1222,#1223,#1224,#1225,#1226,#1227,#1228,#1229,#1230,#1231,
#1232,#1233,#1234,#1235,#1236,#1237,#1238,#1239,#1240));
#1247=DERIVED_UNIT_ELEMENT(#1249,1.);
#1248=DERIVED_UNIT_ELEMENT(#2195,-3.);
#1249=(
MASS_UNIT()
NAMED_UNIT(*)
SI_UNIT(.KILO.,.GRAM.)
);
#1250=DERIVED_UNIT((#1247,#1248));
#1251=MEASURE_REPRESENTATION_ITEM('density measure',
POSITIVE_RATIO_MEASURE(7850.),#1250);
#1252=PROPERTY_DEFINITION_REPRESENTATION(#1257,#1254);
#1253=PROPERTY_DEFINITION_REPRESENTATION(#1258,#1255);
#1254=REPRESENTATION('material name',(#1256),#2192);
#1255=REPRESENTATION('density',(#1251),#2192);
#1256=DESCRIPTIVE_REPRESENTATION_ITEM('Steel','Steel');
#1257=PROPERTY_DEFINITION('material property','material name',#2207);
#1258=PROPERTY_DEFINITION('material property','density of part',#2207);
#1259=AXIS2_PLACEMENT_3D('',#1712,#1369,#1370);
#1260=AXIS2_PLACEMENT_3D('',#1713,#1371,#1372);
#1261=AXIS2_PLACEMENT_3D('',#1742,#1373,#1374);
#1262=AXIS2_PLACEMENT_3D('',#1744,#1375,#1376);
#1263=AXIS2_PLACEMENT_3D('',#1746,#1377,#1378);
#1264=AXIS2_PLACEMENT_3D('',#1747,#1379,#1380);
#1265=AXIS2_PLACEMENT_3D('',#1748,#1381,#1382);
#1266=AXIS2_PLACEMENT_3D('',#1751,#1384,#1385);
#1267=AXIS2_PLACEMENT_3D('',#1752,#1386,#1387);
#1268=AXIS2_PLACEMENT_3D('',#1753,#1388,#1389);
#1269=AXIS2_PLACEMENT_3D('',#1782,#1390,#1391);
#1270=AXIS2_PLACEMENT_3D('',#1784,#1392,#1393);
#1271=AXIS2_PLACEMENT_3D('',#1786,#1394,#1395);
#1272=AXIS2_PLACEMENT_3D('',#1787,#1396,#1397);
#1273=AXIS2_PLACEMENT_3D('',#1788,#1398,#1399);
#1274=AXIS2_PLACEMENT_3D('',#1791,#1401,#1402);
#1275=AXIS2_PLACEMENT_3D('',#1792,#1403,#1404);
#1276=AXIS2_PLACEMENT_3D('',#1793,#1405,#1406);
#1277=AXIS2_PLACEMENT_3D('',#1822,#1407,#1408);
#1278=AXIS2_PLACEMENT_3D('',#1824,#1409,#1410);
#1279=AXIS2_PLACEMENT_3D('',#1826,#1411,#1412);
#1280=AXIS2_PLACEMENT_3D('',#1827,#1413,#1414);
#1281=AXIS2_PLACEMENT_3D('',#1828,#1415,#1416);
#1282=AXIS2_PLACEMENT_3D('',#1831,#1418,#1419);
#1283=AXIS2_PLACEMENT_3D('',#1832,#1420,#1421);
#1284=AXIS2_PLACEMENT_3D('',#1833,#1422,#1423);
#1285=AXIS2_PLACEMENT_3D('',#1862,#1424,#1425);
#1286=AXIS2_PLACEMENT_3D('',#1864,#1426,#1427);
#1287=AXIS2_PLACEMENT_3D('',#1866,#1428,#1429);
#1288=AXIS2_PLACEMENT_3D('',#1867,#1430,#1431);
#1289=AXIS2_PLACEMENT_3D('',#1868,#1432,#1433);
#1290=AXIS2_PLACEMENT_3D('',#1871,#1435,#1436);
#1291=AXIS2_PLACEMENT_3D('',#1872,#1437,#1438);
#1292=AXIS2_PLACEMENT_3D('',#1873,#1439,#1440);
#1293=AXIS2_PLACEMENT_3D('',#1902,#1441,#1442);
#1294=AXIS2_PLACEMENT_3D('',#1904,#1443,#1444);
#1295=AXIS2_PLACEMENT_3D('',#1906,#1445,#1446);
#1296=AXIS2_PLACEMENT_3D('',#1907,#1447,#1448);
#1297=AXIS2_PLACEMENT_3D('',#1908,#1449,#1450);
#1298=AXIS2_PLACEMENT_3D('',#1911,#1452,#1453);
#1299=AXIS2_PLACEMENT_3D('',#1912,#1454,#1455);
#1300=AXIS2_PLACEMENT_3D('',#1913,#1456,#1457);
#1301=AXIS2_PLACEMENT_3D('',#1914,#1458,#1459);
#1302=AXIS2_PLACEMENT_3D('',#1916,#1460,#1461);
#1303=AXIS2_PLACEMENT_3D('',#1919,#1463,#1464);
#1304=AXIS2_PLACEMENT_3D('',#1920,#1465,#1466);
#1305=AXIS2_PLACEMENT_3D('',#1929,#1471,#1472);
#1306=AXIS2_PLACEMENT_3D('',#1935,#1476,#1477);
#1307=AXIS2_PLACEMENT_3D('',#1939,#1480,#1481);
#1308=AXIS2_PLACEMENT_3D('',#1947,#1486,#1487);
#1309=AXIS2_PLACEMENT_3D('',#1948,#1488,#1489);
#1310=AXIS2_PLACEMENT_3D('',#1951,#1490,#1491);
#1311=AXIS2_PLACEMENT_3D('',#1955,#1493,#1494);
#1312=AXIS2_PLACEMENT_3D('',#1957,#1496,#1497);
#1313=AXIS2_PLACEMENT_3D('',#1963,#1501,#1502);
#1314=AXIS2_PLACEMENT_3D('',#1970,#1506,#1507);
#1315=AXIS2_PLACEMENT_3D('',#1971,#1508,#1509);
#1316=AXIS2_PLACEMENT_3D('',#1973,#1510,#1511);
#1317=AXIS2_PLACEMENT_3D('',#1975,#1513,#1514);
#1318=AXIS2_PLACEMENT_3D('',#1983,#1519,#1520);
#1319=AXIS2_PLACEMENT_3D('',#1986,#1521,#1522);
#1320=AXIS2_PLACEMENT_3D('',#1990,#1524,#1525);
#1321=AXIS2_PLACEMENT_3D('',#1992,#1527,#1528);
#1322=AXIS2_PLACEMENT_3D('',#1996,#1530,#1531);
#1323=AXIS2_PLACEMENT_3D('',#2002,#1535,#1536);
#1324=AXIS2_PLACEMENT_3D('',#2006,#1539,#1540);
#1325=AXIS2_PLACEMENT_3D('',#2008,#1541,#1542);
#1326=AXIS2_PLACEMENT_3D('',#2010,#1544,#1545);
#1327=AXIS2_PLACEMENT_3D('',#2013,#1546,#1547);
#1328=AXIS2_PLACEMENT_3D('',#2017,#1549,#1550);
#1329=AXIS2_PLACEMENT_3D('',#2019,#1552,#1553);
#1330=AXIS2_PLACEMENT_3D('',#2025,#1557,#1558);
#1331=AXIS2_PLACEMENT_3D('',#2032,#1562,#1563);
#1332=AXIS2_PLACEMENT_3D('',#2033,#1564,#1565);
#1333=AXIS2_PLACEMENT_3D('',#2035,#1566,#1567);
#1334=AXIS2_PLACEMENT_3D('',#2037,#1569,#1570);
#1335=AXIS2_PLACEMENT_3D('',#2045,#1575,#1576);
#1336=AXIS2_PLACEMENT_3D('',#2053,#1581,#1582);
#1337=AXIS2_PLACEMENT_3D('',#2057,#1585,#1586);
#1338=AXIS2_PLACEMENT_3D('',#2065,#1591,#1592);
#1339=AXIS2_PLACEMENT_3D('',#2067,#1594,#1595);
#1340=AXIS2_PLACEMENT_3D('',#2075,#1600,#1601);
#1341=AXIS2_PLACEMENT_3D('',#2077,#1603,#1604);
#1342=AXIS2_PLACEMENT_3D('',#2079,#1606,#1607);
#1343=AXIS2_PLACEMENT_3D('',#2081,#1609,#1610);
#1344=AXIS2_PLACEMENT_3D('',#2090,#1615,#1616);
#1345=AXIS2_PLACEMENT_3D('',#2096,#1620,#1621);
#1346=AXIS2_PLACEMENT_3D('',#2102,#1625,#1626);
#1347=AXIS2_PLACEMENT_3D('',#2105,#1629,#1630);
#1348=AXIS2_PLACEMENT_3D('',#2106,#1631,#1632);
#1349=AXIS2_PLACEMENT_3D('',#2110,#1635,#1636);
#1350=AXIS2_PLACEMENT_3D('',#2114,#1639,#1640);
#1351=AXIS2_PLACEMENT_3D('',#2116,#1642,#1643);
#1352=AXIS2_PLACEMENT_3D('',#2125,#1648,#1649);
#1353=AXIS2_PLACEMENT_3D('',#2131,#1653,#1654);
#1354=AXIS2_PLACEMENT_3D('',#2137,#1658,#1659);
#1355=AXIS2_PLACEMENT_3D('',#2140,#1662,#1663);
#1356=AXIS2_PLACEMENT_3D('',#2141,#1664,#1665);
#1357=AXIS2_PLACEMENT_3D('',#2143,#1667,#1668);
#1358=AXIS2_PLACEMENT_3D('',#2145,#1670,#1671);
#1359=AXIS2_PLACEMENT_3D('',#2154,#1676,#1677);
#1360=AXIS2_PLACEMENT_3D('',#2160,#1681,#1682);
#1361=AXIS2_PLACEMENT_3D('',#2166,#1686,#1687);
#1362=AXIS2_PLACEMENT_3D('',#2169,#1690,#1691);
#1363=AXIS2_PLACEMENT_3D('',#2170,#1692,#1693);
#1364=AXIS2_PLACEMENT_3D('',#2176,#1697,#1698);
#1365=AXIS2_PLACEMENT_3D('',#2180,#1701,#1702);
#1366=AXIS2_PLACEMENT_3D('',#2184,#1705,#1706);
#1367=AXIS2_PLACEMENT_3D('',#2186,#1708,#1709);
#1368=AXIS2_PLACEMENT_3D('',#2187,#1710,#1711);
#1369=DIRECTION('axis',(0.,0.,1.));
#1370=DIRECTION('refdir',(1.,0.,0.));
#1371=DIRECTION('axis',(0.,0.,1.));
#1372=DIRECTION('refdir',(1.,0.,0.));
#1373=DIRECTION('center_axis',(0.,1.,0.));
#1374=DIRECTION('ref_axis',(1.,0.,0.));
#1375=DIRECTION('center_axis',(-1.,0.,0.));
#1376=DIRECTION('ref_axis',(0.,0.,1.));
#1377=DIRECTION('center_axis',(0.,-1.,0.));
#1378=DIRECTION('ref_axis',(1.,0.,0.));
#1379=DIRECTION('center_axis',(0.,-1.,0.));
#1380=DIRECTION('ref_axis',(1.,0.,0.));
#1381=DIRECTION('center_axis',(0.,-1.,0.));
#1382=DIRECTION('ref_axis',(1.,0.,0.));
#1383=DIRECTION('',(0.,1.,0.));
#1384=DIRECTION('center_axis',(0.,-1.,0.));
#1385=DIRECTION('ref_axis',(1.,0.,0.));
#1386=DIRECTION('center_axis',(0.,-1.,0.));
#1387=DIRECTION('ref_axis',(1.,0.,0.));
#1388=DIRECTION('center_axis',(0.,-1.,0.));
#1389=DIRECTION('ref_axis',(1.,0.,0.));
#1390=DIRECTION('center_axis',(0.,1.,0.));
#1391=DIRECTION('ref_axis',(1.,0.,0.));
#1392=DIRECTION('center_axis',(-1.,0.,0.));
#1393=DIRECTION('ref_axis',(0.,0.,1.));
#1394=DIRECTION('center_axis',(0.,-1.,0.));
#1395=DIRECTION('ref_axis',(1.,0.,0.));
#1396=DIRECTION('center_axis',(0.,-1.,0.));
#1397=DIRECTION('ref_axis',(1.,0.,0.));
#1398=DIRECTION('center_axis',(0.,-1.,0.));
#1399=DIRECTION('ref_axis',(1.,0.,0.));
#1400=DIRECTION('',(0.,1.,0.));
#1401=DIRECTION('center_axis',(0.,-1.,0.));
#1402=DIRECTION('ref_axis',(1.,0.,0.));
#1403=DIRECTION('center_axis',(0.,-1.,0.));
#1404=DIRECTION('ref_axis',(1.,0.,0.));
#1405=DIRECTION('center_axis',(0.,-1.,0.));
#1406=DIRECTION('ref_axis',(1.,0.,0.));
#1407=DIRECTION('center_axis',(0.,1.,0.));
#1408=DIRECTION('ref_axis',(1.,0.,0.));
#1409=DIRECTION('center_axis',(-1.,0.,0.));
#1410=DIRECTION('ref_axis',(0.,0.,1.));
#1411=DIRECTION('center_axis',(0.,-1.,0.));
#1412=DIRECTION('ref_axis',(1.,0.,0.));
#1413=DIRECTION('center_axis',(0.,-1.,0.));
#1414=DIRECTION('ref_axis',(1.,0.,0.));
#1415=DIRECTION('center_axis',(0.,-1.,0.));
#1416=DIRECTION('ref_axis',(1.,0.,0.));
#1417=DIRECTION('',(0.,1.,0.));
#1418=DIRECTION('center_axis',(0.,-1.,0.));
#1419=DIRECTION('ref_axis',(1.,0.,0.));
#1420=DIRECTION('center_axis',(0.,-1.,0.));
#1421=DIRECTION('ref_axis',(1.,0.,0.));
#1422=DIRECTION('center_axis',(0.,-1.,0.));
#1423=DIRECTION('ref_axis',(1.,0.,0.));
#1424=DIRECTION('center_axis',(0.,1.,0.));
#1425=DIRECTION('ref_axis',(1.,0.,0.));
#1426=DIRECTION('center_axis',(-1.,0.,0.));
#1427=DIRECTION('ref_axis',(0.,0.,1.));
#1428=DIRECTION('center_axis',(0.,-1.,0.));
#1429=DIRECTION('ref_axis',(1.,0.,0.));
#1430=DIRECTION('center_axis',(0.,-1.,0.));
#1431=DIRECTION('ref_axis',(1.,0.,0.));
#1432=DIRECTION('center_axis',(0.,-1.,0.));
#1433=DIRECTION('ref_axis',(1.,0.,0.));
#1434=DIRECTION('',(0.,1.,0.));
#1435=DIRECTION('center_axis',(0.,-1.,0.));
#1436=DIRECTION('ref_axis',(1.,0.,0.));
#1437=DIRECTION('center_axis',(0.,-1.,0.));
#1438=DIRECTION('ref_axis',(1.,0.,0.));
#1439=DIRECTION('center_axis',(0.,-1.,0.));
#1440=DIRECTION('ref_axis',(1.,0.,0.));
#1441=DIRECTION('center_axis',(0.,1.,0.));
#1442=DIRECTION('ref_axis',(1.,0.,0.));
#1443=DIRECTION('center_axis',(-1.,0.,0.));
#1444=DIRECTION('ref_axis',(0.,0.,1.));
#1445=DIRECTION('center_axis',(0.,-1.,0.));
#1446=DIRECTION('ref_axis',(1.,0.,0.));
#1447=DIRECTION('center_axis',(0.,-1.,0.));
#1448=DIRECTION('ref_axis',(1.,0.,0.));
#1449=DIRECTION('center_axis',(0.,-1.,0.));
#1450=DIRECTION('ref_axis',(1.,0.,0.));
#1451=DIRECTION('',(0.,1.,0.));
#1452=DIRECTION('center_axis',(0.,-1.,0.));
#1453=DIRECTION('ref_axis',(1.,0.,0.));
#1454=DIRECTION('center_axis',(0.,-1.,0.));
#1455=DIRECTION('ref_axis',(1.,0.,0.));
#1456=DIRECTION('center_axis',(0.,-1.,0.));
#1457=DIRECTION('ref_axis',(1.,0.,0.));
#1458=DIRECTION('center_axis',(0.,-1.,0.));
#1459=DIRECTION('ref_axis',(-1.,0.,0.));
#1460=DIRECTION('center_axis',(0.,1.,0.));
#1461=DIRECTION('ref_axis',(-1.,0.,0.));
#1462=DIRECTION('',(0.,-1.,0.));
#1463=DIRECTION('center_axis',(0.,1.,0.));
#1464=DIRECTION('ref_axis',(-1.,0.,0.));
#1465=DIRECTION('center_axis',(1.,0.,0.));
#1466=DIRECTION('ref_axis',(0.,0.,1.));
#1467=DIRECTION('',(0.,0.,1.));
#1468=DIRECTION('',(0.,1.,0.));
#1469=DIRECTION('',(0.,0.,1.));
#1470=DIRECTION('',(0.,-1.,0.));
#1471=DIRECTION('center_axis',(0.,0.,1.));
#1472=DIRECTION('ref_axis',(-1.,0.,0.));
#1473=DIRECTION('',(-1.,0.,0.));
#1474=DIRECTION('',(-1.,0.,0.));
#1475=DIRECTION('',(0.,-1.,0.));
#1476=DIRECTION('center_axis',(0.,1.,0.));
#1477=DIRECTION('ref_axis',(-1.,0.,0.));
#1478=DIRECTION('',(1.,0.,8.07434927000114E-17));
#1479=DIRECTION('',(6.85322854706887E-17,0.,-1.));
#1480=DIRECTION('center_axis',(8.07434927000114E-17,0.,-1.));
#1481=DIRECTION('ref_axis',(-1.,0.,-8.07434927000114E-17));
#1482=DIRECTION('',(-1.,0.,-8.07434927000114E-17));
#1483=DIRECTION('',(0.,1.,0.));
#1484=DIRECTION('',(1.,0.,8.07434927000114E-17));
#1485=DIRECTION('',(0.,1.,0.));
#1486=DIRECTION('center_axis',(0.,1.,0.));
#1487=DIRECTION('ref_axis',(0.,0.,1.));
#1488=DIRECTION('center_axis',(0.,0.,-1.));
#1489=DIRECTION('ref_axis',(0.707106781186555,0.70710678118654,0.));
#1490=DIRECTION('center_axis',(0.,-0.707106781186549,0.707106781186546));
#1491=DIRECTION('ref_axis',(1.2266347333467E-16,0.707106781186546,0.707106781186549));
#1492=DIRECTION('',(0.,0.,1.));
#1493=DIRECTION('center_axis',(0.,-0.707106781186549,-0.707106781186546));
#1494=DIRECTION('ref_axis',(0.,0.707106781186546,-0.707106781186549));
#1495=DIRECTION('',(0.,0.,-1.));
#1496=DIRECTION('center_axis',(0.,1.,0.));
#1497=DIRECTION('ref_axis',(0.,0.,1.));
#1498=DIRECTION('',(1.,0.,0.));
#1499=DIRECTION('',(0.,0.,-1.));
#1500=DIRECTION('',(-1.,0.,0.));
#1501=DIRECTION('center_axis',(0.,0.707106781186549,-0.707106781186546));
#1502=DIRECTION('ref_axis',(-1.,0.,0.));
#1503=DIRECTION('',(0.,-0.707106781186546,-0.707106781186549));
#1504=DIRECTION('',(-1.,0.,0.));
#1505=DIRECTION('',(0.,0.707106781186546,0.707106781186549));
#1506=DIRECTION('center_axis',(0.,-0.707106781186549,0.707106781186546));
#1507=DIRECTION('ref_axis',(-1.2266347333467E-16,0.707106781186546,0.707106781186549));
#1508=DIRECTION('center_axis',(0.,0.,1.));
#1509=DIRECTION('ref_axis',(-0.707106781186555,0.70710678118654,0.));
#1510=DIRECTION('center_axis',(0.,-0.707106781186549,-0.707106781186546));
#1511=DIRECTION('ref_axis',(0.,0.707106781186546,-0.707106781186549));
#1512=DIRECTION('',(0.,0.,1.));
#1513=DIRECTION('center_axis',(1.,0.,0.));
#1514=DIRECTION('ref_axis',(0.,0.,1.));
#1515=DIRECTION('',(0.,-1.,0.));
#1516=DIRECTION('',(0.,0.,1.));
#1517=DIRECTION('',(0.,-1.,0.));
#1518=DIRECTION('',(0.,-0.707106781186546,0.707106781186549));
#1519=DIRECTION('center_axis',(1.,0.,0.));
#1520=DIRECTION('ref_axis',(0.,0.70710678118654,0.707106781186555));
#1521=DIRECTION('center_axis',(-0.707106781186546,-0.707106781186549,0.));
#1522=DIRECTION('ref_axis',(-0.707106781186549,0.707106781186546,1.2266347333467E-16));
#1523=DIRECTION('',(-1.,0.,0.));
#1524=DIRECTION('center_axis',(0.707106781186546,-0.707106781186549,0.));
#1525=DIRECTION('ref_axis',(0.707106781186549,0.707106781186546,0.));
#1526=DIRECTION('',(1.,0.,0.));
#1527=DIRECTION('center_axis',(-0.707106781186546,0.707106781186549,0.));
#1528=DIRECTION('ref_axis',(0.,0.,1.));
#1529=DIRECTION('',(0.,0.,-1.));
#1530=DIRECTION('center_axis',(0.707106781186546,-0.707106781186549,0.));
#1531=DIRECTION('ref_axis',(0.707106781186549,0.707106781186546,0.));
#1532=DIRECTION('',(-0.707106781186549,-0.707106781186546,0.));
#1533=DIRECTION('',(0.,0.,1.));
#1534=DIRECTION('',(0.707106781186549,0.707106781186546,0.));
#1535=DIRECTION('center_axis',(0.,1.,0.));
#1536=DIRECTION('ref_axis',(0.,0.,1.));
#1537=DIRECTION('',(0.,0.,1.));
#1538=DIRECTION('',(1.,0.,0.));
#1539=DIRECTION('center_axis',(-1.,0.,0.));
#1540=DIRECTION('ref_axis',(0.,0.70710678118654,-0.707106781186555));
#1541=DIRECTION('center_axis',(-0.707106781186546,-0.707106781186549,0.));
#1542=DIRECTION('ref_axis',(-0.707106781186549,0.707106781186546,-1.2266347333467E-16));
#1543=DIRECTION('',(-1.,0.,0.));
#1544=DIRECTION('center_axis',(1.,0.,0.));
#1545=DIRECTION('ref_axis',(0.,0.70710678118654,0.707106781186555));
#1546=DIRECTION('center_axis',(-0.707106781186546,-0.707106781186549,0.));
#1547=DIRECTION('ref_axis',(-0.707106781186549,0.707106781186546,1.2266347333467E-16));
#1548=DIRECTION('',(-1.,0.,0.));
#1549=DIRECTION('center_axis',(0.707106781186546,-0.707106781186549,0.));
#1550=DIRECTION('ref_axis',(0.707106781186549,0.707106781186546,0.));
#1551=DIRECTION('',(1.,0.,0.));
#1552=DIRECTION('center_axis',(0.,1.,0.));
#1553=DIRECTION('ref_axis',(0.,0.,1.));
#1554=DIRECTION('',(0.,0.,1.));
#1555=DIRECTION('',(1.,0.,0.));
#1556=DIRECTION('',(0.,0.,-1.));
#1557=DIRECTION('center_axis',(0.707106781186546,0.707106781186549,0.));
#1558=DIRECTION('ref_axis',(0.,0.,-1.));
#1559=DIRECTION('',(0.707106781186549,-0.707106781186546,0.));
#1560=DIRECTION('',(0.,0.,-1.));
#1561=DIRECTION('',(-0.707106781186549,0.707106781186546,0.));
#1562=DIRECTION('center_axis',(-0.707106781186546,-0.707106781186549,0.));
#1563=DIRECTION('ref_axis',(-0.707106781186549,0.707106781186546,-1.2266347333467E-16));
#1564=DIRECTION('center_axis',(-1.,0.,0.));
#1565=DIRECTION('ref_axis',(0.,0.70710678118654,-0.707106781186555));
#1566=DIRECTION('center_axis',(0.707106781186546,-0.707106781186549,0.));
#1567=DIRECTION('ref_axis',(0.707106781186549,0.707106781186546,0.));
#1568=DIRECTION('',(-1.,0.,0.));
#1569=DIRECTION('center_axis',(0.,0.,1.));
#1570=DIRECTION('ref_axis',(-1.,0.,0.));
#1571=DIRECTION('',(0.,-1.,0.));
#1572=DIRECTION('',(-1.,0.,0.));
#1573=DIRECTION('',(0.,-1.,0.));
#1574=DIRECTION('',(-0.707106781186549,-0.707106781186546,0.));
#1575=DIRECTION('center_axis',(0.,0.,1.));
#1576=DIRECTION('ref_axis',(-1.,0.,0.));
#1577=DIRECTION('',(-0.707106781186549,0.707106781186546,0.));
#1578=DIRECTION('',(0.,-1.,0.));
#1579=DIRECTION('',(-1.,0.,0.));
#1580=DIRECTION('',(0.,-1.,0.));
#1581=DIRECTION('center_axis',(0.707106781186546,0.707106781186549,0.));
#1582=DIRECTION('ref_axis',(0.,0.,-1.));
#1583=DIRECTION('',(0.707106781186549,-0.707106781186546,0.));
#1584=DIRECTION('',(0.,0.,-1.));
#1585=DIRECTION('center_axis',(0.,0.,-1.));
#1586=DIRECTION('ref_axis',(1.,0.,0.));
#1587=DIRECTION('',(0.707106781186549,0.707106781186546,0.));
#1588=DIRECTION('',(0.,-1.,0.));
#1589=DIRECTION('',(1.,0.,0.));
#1590=DIRECTION('',(0.,-1.,0.));
#1591=DIRECTION('center_axis',(-0.707106781186546,0.707106781186549,0.));
#1592=DIRECTION('ref_axis',(0.,0.,1.));
#1593=DIRECTION('',(0.,0.,1.));
#1594=DIRECTION('center_axis',(-1.,0.,0.));
#1595=DIRECTION('ref_axis',(0.,0.,-1.));
#1596=DIRECTION('',(0.,0.707106781186546,-0.707106781186549));
#1597=DIRECTION('',(0.,-1.,0.));
#1598=DIRECTION('',(0.,0.,-1.));
#1599=DIRECTION('',(0.,-1.,0.));
#1600=DIRECTION('center_axis',(0.,0.707106781186549,0.707106781186546));
#1601=DIRECTION('ref_axis',(1.,0.,0.));
#1602=DIRECTION('',(1.,0.,0.));
#1603=DIRECTION('center_axis',(-1.,0.,0.));
#1604=DIRECTION('ref_axis',(0.,0.,-1.));
#1605=DIRECTION('',(0.,0.,-1.));
#1606=DIRECTION('center_axis',(1.,0.,0.));
#1607=DIRECTION('ref_axis',(0.,0.,1.));
#1608=DIRECTION('',(0.,0.,1.));
#1609=DIRECTION('center_axis',(-1.,0.,0.));
#1610=DIRECTION('ref_axis',(0.,0.,-1.));
#1611=DIRECTION('',(0.,0.,-1.));
#1612=DIRECTION('',(0.,-1.,0.));
#1613=DIRECTION('',(0.,0.,-1.));
#1614=DIRECTION('',(0.,-1.,0.));
#1615=DIRECTION('center_axis',(0.,0.,1.));
#1616=DIRECTION('ref_axis',(-1.,0.,0.));
#1617=DIRECTION('',(-1.,0.,0.));
#1618=DIRECTION('',(0.,-1.,0.));
#1619=DIRECTION('',(-1.,0.,0.));
#1620=DIRECTION('center_axis',(1.,0.,0.));
#1621=DIRECTION('ref_axis',(0.,0.,1.));
#1622=DIRECTION('',(0.,0.,1.));
#1623=DIRECTION('',(0.,-1.,0.));
#1624=DIRECTION('',(0.,0.,1.));
#1625=DIRECTION('center_axis',(0.,0.,-1.));
#1626=DIRECTION('ref_axis',(1.,0.,0.));
#1627=DIRECTION('',(1.,0.,0.));
#1628=DIRECTION('',(1.,0.,0.));
#1629=DIRECTION('center_axis',(0.,-1.,0.));
#1630=DIRECTION('ref_axis',(0.,0.,-1.));
#1631=DIRECTION('center_axis',(1.,0.,0.));
#1632=DIRECTION('ref_axis',(0.,0.,1.));
#1633=DIRECTION('',(0.,0.,1.));
#1634=DIRECTION('',(0.,-1.,0.));
#1635=DIRECTION('center_axis',(-1.,0.,0.));
#1636=DIRECTION('ref_axis',(0.,0.,-1.));
#1637=DIRECTION('',(0.,-1.,0.));
#1638=DIRECTION('',(0.,0.,-1.));
#1639=DIRECTION('center_axis',(0.,0.,-1.));
#1640=DIRECTION('ref_axis',(1.,0.,0.));
#1641=DIRECTION('',(1.,0.,0.));
#1642=DIRECTION('center_axis',(-0.999999999999998,0.,-6.75519292355392E-8));
#1643=DIRECTION('ref_axis',(6.75519292355392E-8,0.,-0.999999999999998));
#1644=DIRECTION('',(6.75519292355392E-8,0.,-0.999999999999998));
#1645=DIRECTION('',(0.,-1.,0.));
#1646=DIRECTION('',(6.75519292355392E-8,0.,-0.999999999999998));
#1647=DIRECTION('',(0.,-1.,0.));
#1648=DIRECTION('center_axis',(0.,0.,1.));
#1649=DIRECTION('ref_axis',(-1.,0.,0.));
#1650=DIRECTION('',(-1.,0.,0.));
#1651=DIRECTION('',(0.,-1.,0.));
#1652=DIRECTION('',(-1.,0.,0.));
#1653=DIRECTION('center_axis',(1.,0.,0.));
#1654=DIRECTION('ref_axis',(0.,0.,1.));
#1655=DIRECTION('',(0.,0.,1.));
#1656=DIRECTION('',(0.,-1.,0.));
#1657=DIRECTION('',(0.,0.,1.));
#1658=DIRECTION('center_axis',(0.,0.,-1.));
#1659=DIRECTION('ref_axis',(1.,0.,0.));
#1660=DIRECTION('',(1.,0.,0.));
#1661=DIRECTION('',(1.,0.,0.));
#1662=DIRECTION('center_axis',(0.,-1.,0.));
#1663=DIRECTION('ref_axis',(0.,0.,-1.));
#1664=DIRECTION('center_axis',(0.,0.,1.));
#1665=DIRECTION('ref_axis',(-1.,0.,0.));
#1666=DIRECTION('',(-1.,0.,0.));
#1667=DIRECTION('center_axis',(0.,0.,-1.));
#1668=DIRECTION('ref_axis',(1.,0.,0.));
#1669=DIRECTION('',(1.,0.,0.));
#1670=DIRECTION('center_axis',(-1.,0.,0.));
#1671=DIRECTION('ref_axis',(0.,0.,-1.));
#1672=DIRECTION('',(0.,0.,-1.));
#1673=DIRECTION('',(0.,-1.,0.));
#1674=DIRECTION('',(0.,0.,-1.));
#1675=DIRECTION('',(0.,-1.,0.));
#1676=DIRECTION('center_axis',(0.,0.,1.));
#1677=DIRECTION('ref_axis',(-1.,0.,0.));
#1678=DIRECTION('',(-1.,0.,0.));
#1679=DIRECTION('',(0.,-1.,0.));
#1680=DIRECTION('',(-1.,0.,0.));
#1681=DIRECTION('center_axis',(1.,0.,0.));
#1682=DIRECTION('ref_axis',(0.,0.,1.));
#1683=DIRECTION('',(0.,0.,1.));
#1684=DIRECTION('',(0.,-1.,0.));
#1685=DIRECTION('',(0.,0.,1.));
#1686=DIRECTION('center_axis',(0.,0.,-1.));
#1687=DIRECTION('ref_axis',(1.,0.,0.));
#1688=DIRECTION('',(1.,0.,0.));
#1689=DIRECTION('',(1.,0.,0.));
#1690=DIRECTION('center_axis',(0.,-1.,0.));
#1691=DIRECTION('ref_axis',(0.,0.,-1.));
#1692=DIRECTION('center_axis',(0.,1.,0.));
#1693=DIRECTION('ref_axis',(0.,0.,1.));
#1694=DIRECTION('',(-6.85322854706887E-17,0.,1.));
#1695=DIRECTION('',(1.,0.,0.));
#1696=DIRECTION('',(-1.37064570941377E-16,0.,-1.));
#1697=DIRECTION('center_axis',(1.,0.,-1.37064570941377E-16));
#1698=DIRECTION('ref_axis',(-1.37064570941377E-16,0.,-1.));
#1699=DIRECTION('',(1.37064570941377E-16,0.,1.));
#1700=DIRECTION('',(0.,1.,0.));
#1701=DIRECTION('center_axis',(0.,0.,1.));
#1702=DIRECTION('ref_axis',(1.,0.,0.));
#1703=DIRECTION('',(-1.,0.,0.));
#1704=DIRECTION('',(0.,1.,0.));
#1705=DIRECTION('center_axis',(-1.,0.,-6.85322854706887E-17));
#1706=DIRECTION('ref_axis',(-6.85322854706887E-17,0.,1.));
#1707=DIRECTION('',(6.85322854706887E-17,0.,-1.));
#1708=DIRECTION('center_axis',(0.,1.,0.));
#1709=DIRECTION('ref_axis',(1.,0.,0.));
#1710=DIRECTION('',(0.,0.,1.));
#1711=DIRECTION('',(1.,0.,0.));
#1712=CARTESIAN_POINT('',(0.,0.,0.));
#1713=CARTESIAN_POINT('',(0.,0.,0.));
#1714=CARTESIAN_POINT('Ctrl Pts',(7.05,-2.6,4.11));
#1715=CARTESIAN_POINT('Ctrl Pts',(6.,-2.6,4.11));
#1716=CARTESIAN_POINT('Ctrl Pts',(6.,-2.6,3.06));
#1717=CARTESIAN_POINT('Ctrl Pts',(6.,-2.6,2.01));
#1718=CARTESIAN_POINT('Ctrl Pts',(7.05,-2.6,2.01));
#1719=CARTESIAN_POINT('Ctrl Pts',(8.1,-2.6,2.01));
#1720=CARTESIAN_POINT('Ctrl Pts',(8.1,-2.6,3.06));
#1721=CARTESIAN_POINT('Ctrl Pts',(8.1,-2.6,4.11));
#1722=CARTESIAN_POINT('Ctrl Pts',(7.05,-2.6,4.11));
#1723=CARTESIAN_POINT('Ctrl Pts',(7.05,-3.5,4.11));
#1724=CARTESIAN_POINT('Ctrl Pts',(6.,-3.5,4.11));
#1725=CARTESIAN_POINT('Ctrl Pts',(6.,-3.5,3.06));
#1726=CARTESIAN_POINT('Ctrl Pts',(6.,-3.5,2.01));
#1727=CARTESIAN_POINT('Ctrl Pts',(7.05,-3.5,2.01));
#1728=CARTESIAN_POINT('Ctrl Pts',(8.1,-3.5,2.01));
#1729=CARTESIAN_POINT('Ctrl Pts',(8.1,-3.5,3.06));
#1730=CARTESIAN_POINT('Ctrl Pts',(8.1,-3.5,4.11));
#1731=CARTESIAN_POINT('Ctrl Pts',(7.05,-3.5,4.11));
#1732=CARTESIAN_POINT('Ctrl Pts',(7.05,-3.5,3.21));
#1733=CARTESIAN_POINT('Ctrl Pts',(6.9,-3.5,3.21));
#1734=CARTESIAN_POINT('Ctrl Pts',(6.9,-3.5,3.06));
#1735=CARTESIAN_POINT('Ctrl Pts',(6.9,-3.5,2.91));
#1736=CARTESIAN_POINT('Ctrl Pts',(7.05,-3.5,2.91));
#1737=CARTESIAN_POINT('Ctrl Pts',(7.2,-3.5,2.91));
#1738=CARTESIAN_POINT('Ctrl Pts',(7.2,-3.5,3.06));
#1739=CARTESIAN_POINT('Ctrl Pts',(7.2,-3.5,3.21));
#1740=CARTESIAN_POINT('Ctrl Pts',(7.05,-3.5,3.21));
#1741=CARTESIAN_POINT('',(7.05,-3.5,3.21));
#1742=CARTESIAN_POINT('Origin',(7.05,-3.5,3.06));
#1743=CARTESIAN_POINT('',(7.05,-2.6,4.11));
#1744=CARTESIAN_POINT('Origin',(7.05,-2.6,3.21));
#1745=CARTESIAN_POINT('',(6.,-2.6,3.06));
#1746=CARTESIAN_POINT('Origin',(7.05,-2.6,3.06));
#1747=CARTESIAN_POINT('Origin',(7.05,-2.6,3.06));
#1748=CARTESIAN_POINT('Origin',(7.05,0.,3.06));
#1749=CARTESIAN_POINT('',(6.,0.,3.06));
#1750=CARTESIAN_POINT('',(6.,0.,3.06));
#1751=CARTESIAN_POINT('Origin',(7.05,0.,3.06));
#1752=CARTESIAN_POINT('Origin',(7.05,-3.5,3.06));
#1753=CARTESIAN_POINT('Origin',(7.05,0.,3.06));
#1754=CARTESIAN_POINT('Ctrl Pts',(-10.75,-2.6,14.25));
#1755=CARTESIAN_POINT('Ctrl Pts',(-11.8,-2.6,14.25));
#1756=CARTESIAN_POINT('Ctrl Pts',(-11.8,-2.6,13.2));
#1757=CARTESIAN_POINT('Ctrl Pts',(-11.8,-2.6,12.15));
#1758=CARTESIAN_POINT('Ctrl Pts',(-10.75,-2.6,12.15));
#1759=CARTESIAN_POINT('Ctrl Pts',(-9.7,-2.6,12.15));
#1760=CARTESIAN_POINT('Ctrl Pts',(-9.7,-2.6,13.2));
#1761=CARTESIAN_POINT('Ctrl Pts',(-9.7,-2.6,14.25));
#1762=CARTESIAN_POINT('Ctrl Pts',(-10.75,-2.6,14.25));
#1763=CARTESIAN_POINT('Ctrl Pts',(-10.75,-3.5,14.25));
#1764=CARTESIAN_POINT('Ctrl Pts',(-11.8,-3.5,14.25));
#1765=CARTESIAN_POINT('Ctrl Pts',(-11.8,-3.5,13.2));
#1766=CARTESIAN_POINT('Ctrl Pts',(-11.8,-3.5,12.15));
#1767=CARTESIAN_POINT('Ctrl Pts',(-10.75,-3.5,12.15));
#1768=CARTESIAN_POINT('Ctrl Pts',(-9.7,-3.5,12.15));
#1769=CARTESIAN_POINT('Ctrl Pts',(-9.7,-3.5,13.2));
#1770=CARTESIAN_POINT('Ctrl Pts',(-9.7,-3.5,14.25));
#1771=CARTESIAN_POINT('Ctrl Pts',(-10.75,-3.5,14.25));
#1772=CARTESIAN_POINT('Ctrl Pts',(-10.75,-3.5,13.35));
#1773=CARTESIAN_POINT('Ctrl Pts',(-10.9,-3.5,13.35));
#1774=CARTESIAN_POINT('Ctrl Pts',(-10.9,-3.5,13.2));
#1775=CARTESIAN_POINT('Ctrl Pts',(-10.9,-3.5,13.05));
#1776=CARTESIAN_POINT('Ctrl Pts',(-10.75,-3.5,13.05));
#1777=CARTESIAN_POINT('Ctrl Pts',(-10.6,-3.5,13.05));
#1778=CARTESIAN_POINT('Ctrl Pts',(-10.6,-3.5,13.2));
#1779=CARTESIAN_POINT('Ctrl Pts',(-10.6,-3.5,13.35));
#1780=CARTESIAN_POINT('Ctrl Pts',(-10.75,-3.5,13.35));
#1781=CARTESIAN_POINT('',(-10.75,-3.5,13.35));
#1782=CARTESIAN_POINT('Origin',(-10.75,-3.5,13.2));
#1783=CARTESIAN_POINT('',(-10.75,-2.6,14.25));
#1784=CARTESIAN_POINT('Origin',(-10.75,-2.6,13.35));
#1785=CARTESIAN_POINT('',(-11.8,-2.6,13.2));
#1786=CARTESIAN_POINT('Origin',(-10.75,-2.6,13.2));
#1787=CARTESIAN_POINT('Origin',(-10.75,-2.6,13.2));
#1788=CARTESIAN_POINT('Origin',(-10.75,0.,13.2));
#1789=CARTESIAN_POINT('',(-11.8,0.,13.2));
#1790=CARTESIAN_POINT('',(-11.8,0.,13.2));
#1791=CARTESIAN_POINT('Origin',(-10.75,0.,13.2));
#1792=CARTESIAN_POINT('Origin',(-10.75,-3.5,13.2));
#1793=CARTESIAN_POINT('Origin',(-10.75,0.,13.2));
#1794=CARTESIAN_POINT('Ctrl Pts',(3.25,-3.1,-9.09));
#1795=CARTESIAN_POINT('Ctrl Pts',(2.7,-3.1,-9.09));
#1796=CARTESIAN_POINT('Ctrl Pts',(2.7,-3.1,-9.64));
#1797=CARTESIAN_POINT('Ctrl Pts',(2.7,-3.1,-10.19));
#1798=CARTESIAN_POINT('Ctrl Pts',(3.25,-3.1,-10.19));
#1799=CARTESIAN_POINT('Ctrl Pts',(3.8,-3.1,-10.19));
#1800=CARTESIAN_POINT('Ctrl Pts',(3.8,-3.1,-9.64));
#1801=CARTESIAN_POINT('Ctrl Pts',(3.8,-3.1,-9.09));
#1802=CARTESIAN_POINT('Ctrl Pts',(3.25,-3.1,-9.09));
#1803=CARTESIAN_POINT('Ctrl Pts',(3.25,-3.5,-9.09));
#1804=CARTESIAN_POINT('Ctrl Pts',(2.7,-3.5,-9.09));
#1805=CARTESIAN_POINT('Ctrl Pts',(2.7,-3.5,-9.64));
#1806=CARTESIAN_POINT('Ctrl Pts',(2.7,-3.5,-10.19));
#1807=CARTESIAN_POINT('Ctrl Pts',(3.25,-3.5,-10.19));
#1808=CARTESIAN_POINT('Ctrl Pts',(3.8,-3.5,-10.19));
#1809=CARTESIAN_POINT('Ctrl Pts',(3.8,-3.5,-9.64));
#1810=CARTESIAN_POINT('Ctrl Pts',(3.8,-3.5,-9.09));
#1811=CARTESIAN_POINT('Ctrl Pts',(3.25,-3.5,-9.09));
#1812=CARTESIAN_POINT('Ctrl Pts',(3.25,-3.5,-9.49));
#1813=CARTESIAN_POINT('Ctrl Pts',(3.1,-3.5,-9.49));
#1814=CARTESIAN_POINT('Ctrl Pts',(3.1,-3.5,-9.64));
#1815=CARTESIAN_POINT('Ctrl Pts',(3.1,-3.5,-9.79));
#1816=CARTESIAN_POINT('Ctrl Pts',(3.25,-3.5,-9.79));
#1817=CARTESIAN_POINT('Ctrl Pts',(3.4,-3.5,-9.79));
#1818=CARTESIAN_POINT('Ctrl Pts',(3.4,-3.5,-9.64));
#1819=CARTESIAN_POINT('Ctrl Pts',(3.4,-3.5,-9.49));
#1820=CARTESIAN_POINT('Ctrl Pts',(3.25,-3.5,-9.49));
#1821=CARTESIAN_POINT('',(3.25,-3.5,-9.49));
#1822=CARTESIAN_POINT('Origin',(3.25,-3.5,-9.64));
#1823=CARTESIAN_POINT('',(3.25,-3.1,-9.09));
#1824=CARTESIAN_POINT('Origin',(3.25,-3.1,-9.49));
#1825=CARTESIAN_POINT('',(2.7,-3.1,-9.64));
#1826=CARTESIAN_POINT('Origin',(3.25,-3.1,-9.64));
#1827=CARTESIAN_POINT('Origin',(3.25,-3.1,-9.64));
#1828=CARTESIAN_POINT('Origin',(3.25,0.,-9.64));
#1829=CARTESIAN_POINT('',(2.7,0.,-9.64));
#1830=CARTESIAN_POINT('',(2.7,0.,-9.64));
#1831=CARTESIAN_POINT('Origin',(3.25,0.,-9.64));
#1832=CARTESIAN_POINT('Origin',(3.25,-3.5,-9.64));
#1833=CARTESIAN_POINT('Origin',(3.25,0.,-9.64));
#1834=CARTESIAN_POINT('Ctrl Pts',(-10.75,-2.6,6.65));
#1835=CARTESIAN_POINT('Ctrl Pts',(-11.8,-2.6,6.65));
#1836=CARTESIAN_POINT('Ctrl Pts',(-11.8,-2.6,5.6));
#1837=CARTESIAN_POINT('Ctrl Pts',(-11.8,-2.6,4.55));
#1838=CARTESIAN_POINT('Ctrl Pts',(-10.75,-2.6,4.55));
#1839=CARTESIAN_POINT('Ctrl Pts',(-9.7,-2.6,4.55));
#1840=CARTESIAN_POINT('Ctrl Pts',(-9.7,-2.6,5.6));
#1841=CARTESIAN_POINT('Ctrl Pts',(-9.7,-2.6,6.65));
#1842=CARTESIAN_POINT('Ctrl Pts',(-10.75,-2.6,6.65));
#1843=CARTESIAN_POINT('Ctrl Pts',(-10.75,-3.5,6.65));
#1844=CARTESIAN_POINT('Ctrl Pts',(-11.8,-3.5,6.65));
#1845=CARTESIAN_POINT('Ctrl Pts',(-11.8,-3.5,5.6));
#1846=CARTESIAN_POINT('Ctrl Pts',(-11.8,-3.5,4.55));
#1847=CARTESIAN_POINT('Ctrl Pts',(-10.75,-3.5,4.55));
#1848=CARTESIAN_POINT('Ctrl Pts',(-9.7,-3.5,4.55));
#1849=CARTESIAN_POINT('Ctrl Pts',(-9.7,-3.5,5.6));
#1850=CARTESIAN_POINT('Ctrl Pts',(-9.7,-3.5,6.65));
#1851=CARTESIAN_POINT('Ctrl Pts',(-10.75,-3.5,6.65));
#1852=CARTESIAN_POINT('Ctrl Pts',(-10.75,-3.5,5.75));
#1853=CARTESIAN_POINT('Ctrl Pts',(-10.9,-3.5,5.75));
#1854=CARTESIAN_POINT('Ctrl Pts',(-10.9,-3.5,5.6));
#1855=CARTESIAN_POINT('Ctrl Pts',(-10.9,-3.5,5.45));
#1856=CARTESIAN_POINT('Ctrl Pts',(-10.75,-3.5,5.45));
#1857=CARTESIAN_POINT('Ctrl Pts',(-10.6,-3.5,5.45));
#1858=CARTESIAN_POINT('Ctrl Pts',(-10.6,-3.5,5.6));
#1859=CARTESIAN_POINT('Ctrl Pts',(-10.6,-3.5,5.75));
#1860=CARTESIAN_POINT('Ctrl Pts',(-10.75,-3.5,5.75));
#1861=CARTESIAN_POINT('',(-10.75,-3.5,5.75));
#1862=CARTESIAN_POINT('Origin',(-10.75,-3.5,5.6));
#1863=CARTESIAN_POINT('',(-10.75,-2.6,6.65));
#1864=CARTESIAN_POINT('Origin',(-10.75,-2.6,5.75));
#1865=CARTESIAN_POINT('',(-11.8,-2.6,5.6));
#1866=CARTESIAN_POINT('Origin',(-10.75,-2.6,5.6));
#1867=CARTESIAN_POINT('Origin',(-10.75,-2.6,5.6));
#1868=CARTESIAN_POINT('Origin',(-10.75,0.,5.6));
#1869=CARTESIAN_POINT('',(-11.8,0.,5.6));
#1870=CARTESIAN_POINT('',(-11.8,0.,5.6));
#1871=CARTESIAN_POINT('Origin',(-10.75,0.,5.6));
#1872=CARTESIAN_POINT('Origin',(-10.75,-3.5,5.6));
#1873=CARTESIAN_POINT('Origin',(-10.75,0.,5.6));
#1874=CARTESIAN_POINT('Ctrl Pts',(-6.95,-3.1,-9.09));
#1875=CARTESIAN_POINT('Ctrl Pts',(-7.5,-3.1,-9.09));
#1876=CARTESIAN_POINT('Ctrl Pts',(-7.5,-3.1,-9.64));
#1877=CARTESIAN_POINT('Ctrl Pts',(-7.5,-3.1,-10.19));
#1878=CARTESIAN_POINT('Ctrl Pts',(-6.95,-3.1,-10.19));
#1879=CARTESIAN_POINT('Ctrl Pts',(-6.4,-3.1,-10.19));
#1880=CARTESIAN_POINT('Ctrl Pts',(-6.4,-3.1,-9.64));
#1881=CARTESIAN_POINT('Ctrl Pts',(-6.4,-3.1,-9.09));
#1882=CARTESIAN_POINT('Ctrl Pts',(-6.95,-3.1,-9.09));
#1883=CARTESIAN_POINT('Ctrl Pts',(-6.95,-3.5,-9.09));
#1884=CARTESIAN_POINT('Ctrl Pts',(-7.5,-3.5,-9.09));
#1885=CARTESIAN_POINT('Ctrl Pts',(-7.5,-3.5,-9.64));
#1886=CARTESIAN_POINT('Ctrl Pts',(-7.5,-3.5,-10.19));
#1887=CARTESIAN_POINT('Ctrl Pts',(-6.95,-3.5,-10.19));
#1888=CARTESIAN_POINT('Ctrl Pts',(-6.4,-3.5,-10.19));
#1889=CARTESIAN_POINT('Ctrl Pts',(-6.4,-3.5,-9.64));
#1890=CARTESIAN_POINT('Ctrl Pts',(-6.4,-3.5,-9.09));
#1891=CARTESIAN_POINT('Ctrl Pts',(-6.95,-3.5,-9.09));
#1892=CARTESIAN_POINT('Ctrl Pts',(-6.95,-3.5,-9.49));
#1893=CARTESIAN_POINT('Ctrl Pts',(-7.1,-3.5,-9.49));
#1894=CARTESIAN_POINT('Ctrl Pts',(-7.1,-3.5,-9.64));
#1895=CARTESIAN_POINT('Ctrl Pts',(-7.1,-3.5,-9.79));
#1896=CARTESIAN_POINT('Ctrl Pts',(-6.95,-3.5,-9.79));
#1897=CARTESIAN_POINT('Ctrl Pts',(-6.8,-3.5,-9.79));
#1898=CARTESIAN_POINT('Ctrl Pts',(-6.8,-3.5,-9.64));
#1899=CARTESIAN_POINT('Ctrl Pts',(-6.8,-3.5,-9.49));
#1900=CARTESIAN_POINT('Ctrl Pts',(-6.95,-3.5,-9.49));
#1901=CARTESIAN_POINT('',(-6.95,-3.5,-9.49));
#1902=CARTESIAN_POINT('Origin',(-6.95,-3.5,-9.64));
#1903=CARTESIAN_POINT('',(-6.95,-3.1,-9.09));
#1904=CARTESIAN_POINT('Origin',(-6.95,-3.1,-9.49));
#1905=CARTESIAN_POINT('',(-7.5,-3.1,-9.64));
#1906=CARTESIAN_POINT('Origin',(-6.95,-3.1,-9.64));
#1907=CARTESIAN_POINT('Origin',(-6.95,-3.1,-9.64));
#1908=CARTESIAN_POINT('Origin',(-6.95,0.,-9.64));
#1909=CARTESIAN_POINT('',(-7.5,0.,-9.64));
#1910=CARTESIAN_POINT('',(-7.5,0.,-9.64));
#1911=CARTESIAN_POINT('Origin',(-6.95,0.,-9.64));
#1912=CARTESIAN_POINT('Origin',(-6.95,-3.5,-9.64));
#1913=CARTESIAN_POINT('Origin',(-6.95,0.,-9.64));
#1914=CARTESIAN_POINT('Origin',(-12.25,27.8,-14.7));
#1915=CARTESIAN_POINT('',(-11.75,27.8,-14.7));
#1916=CARTESIAN_POINT('Origin',(-12.25,27.8,-14.7));
#1917=CARTESIAN_POINT('',(-11.75,26.8,-14.7));
#1918=CARTESIAN_POINT('',(-11.75,27.8,-14.7));
#1919=CARTESIAN_POINT('Origin',(-12.25,26.8,-14.7));
#1920=CARTESIAN_POINT('Origin',(-10.75,27.8,-16.2));
#1921=CARTESIAN_POINT('',(-10.75,27.8,-16.2));
#1922=CARTESIAN_POINT('',(-10.75,27.8,-13.2));
#1923=CARTESIAN_POINT('',(-10.75,27.8,-8.1));
#1924=CARTESIAN_POINT('',(-10.75,26.8,-16.2));
#1925=CARTESIAN_POINT('',(-10.75,13.9,-16.2));
#1926=CARTESIAN_POINT('',(-10.75,26.8,-13.2));
#1927=CARTESIAN_POINT('',(-10.75,26.8,-16.2));
#1928=CARTESIAN_POINT('',(-10.75,27.8,-13.2));
#1929=CARTESIAN_POINT('Origin',(-10.75,27.8,-13.2));
#1930=CARTESIAN_POINT('',(-13.75,27.8,-13.2));
#1931=CARTESIAN_POINT('',(-5.375,27.8,-13.2));
#1932=CARTESIAN_POINT('',(-13.75,26.8,-13.2));
#1933=CARTESIAN_POINT('',(-10.75,26.8,-13.2));
#1934=CARTESIAN_POINT('',(-13.75,13.9,-13.2));
#1935=CARTESIAN_POINT('Origin',(-12.25,26.8,-14.7));
#1936=CARTESIAN_POINT('',(-13.75,26.8,-16.2));
#1937=CARTESIAN_POINT('',(0.75,26.8,-16.2));
#1938=CARTESIAN_POINT('',(-13.75,26.8,-15.45));
#1939=CARTESIAN_POINT('Origin',(13.75,0.,-16.2));
#1940=CARTESIAN_POINT('',(13.75,27.8,-16.2));
#1941=CARTESIAN_POINT('',(-13.75,27.8,-16.2));
#1942=CARTESIAN_POINT('',(13.75,0.,-16.2));
#1943=CARTESIAN_POINT('',(13.75,0.,-16.2));
#1944=CARTESIAN_POINT('',(-13.75,0.,-16.2));
#1945=CARTESIAN_POINT('',(-13.75,0.,-16.2));
#1946=CARTESIAN_POINT('',(-13.75,0.,-16.2));
#1947=CARTESIAN_POINT('Origin',(0.,27.8,0.));
#1948=CARTESIAN_POINT('Origin',(-11.5410683195312,27.6,0.0332387807069569));
#1949=CARTESIAN_POINT('',(-11.3410683195312,27.6,-5.53352243858609));
#1950=CARTESIAN_POINT('',(-11.5410683195312,27.8,-5.33352243858609));
#1951=CARTESIAN_POINT('Origin',(-11.5410683195312,27.6,-5.53352243858608));
#1952=CARTESIAN_POINT('',(-11.5410683195312,27.8,-0.933522438586086));
#1953=CARTESIAN_POINT('',(-11.5410683195312,27.8,0.0332387807069569));
#1954=CARTESIAN_POINT('',(-11.3410683195312,27.6,-0.733522438586089));
#1955=CARTESIAN_POINT('Origin',(-11.5410683195312,27.6,-0.73352243858609));
#1956=CARTESIAN_POINT('',(-11.3410683195312,27.6,0.0332387807069569));
#1957=CARTESIAN_POINT('Origin',(0.,27.8,0.));
#1958=CARTESIAN_POINT('',(-11.9410683195312,27.8,-5.33352243858609));
#1959=CARTESIAN_POINT('',(-5.67053415976558,27.8,-5.33352243858609));
#1960=CARTESIAN_POINT('',(-11.9410683195312,27.8,-0.933522438586086));
#1961=CARTESIAN_POINT('',(-11.9410683195312,27.8,-3.16676121929304));
#1962=CARTESIAN_POINT('',(-6.07053415976558,27.8,-0.933522438586086));
#1963=CARTESIAN_POINT('Origin',(-5.67053415976558,27.3,-5.83352243858609));
#1964=CARTESIAN_POINT('',(-11.3410683195312,26.8,-6.33352243858609));
#1965=CARTESIAN_POINT('',(-11.3410683195312,28.9,-4.23352243858608));
#1966=CARTESIAN_POINT('',(-12.1410683195312,26.8,-6.33352243858609));
#1967=CARTESIAN_POINT('',(-5.67053415976558,26.8,-6.33352243858609));
#1968=CARTESIAN_POINT('',(-12.1410683195312,27.6,-5.53352243858608));
#1969=CARTESIAN_POINT('',(-12.1410683195312,27.3,-5.83352243858609));
#1970=CARTESIAN_POINT('Origin',(-11.9410683195312,27.6,-5.53352243858608));
#1971=CARTESIAN_POINT('Origin',(-11.9410683195312,27.6,-3.16676121929304));
#1972=CARTESIAN_POINT('',(-12.1410683195312,27.6,-0.733522438586087));
#1973=CARTESIAN_POINT('Origin',(-11.9410683195312,27.6,-0.73352243858609));
#1974=CARTESIAN_POINT('',(-12.1410683195312,27.6,-3.16676121929304));
#1975=CARTESIAN_POINT('Origin',(-12.1410683195312,27.8,-6.33352243858609));
#1976=CARTESIAN_POINT('',(-12.1410683195312,10.8,-6.33352243858609));
#1977=CARTESIAN_POINT('',(-12.1410683195312,27.8,-6.33352243858609));
#1978=CARTESIAN_POINT('',(-12.1410683195312,10.8,0.0664775614139135));
#1979=CARTESIAN_POINT('',(-12.1410683195312,10.8,-6.33352243858609));
#1980=CARTESIAN_POINT('',(-12.1410683195312,26.8,0.0664775614139135));
#1981=CARTESIAN_POINT('',(-12.1410683195312,27.8,0.0664775614139135));
#1982=CARTESIAN_POINT('',(-12.1410683195312,28.9,-2.03352243858609));
#1983=CARTESIAN_POINT('Origin',(-5.9749998986721,27.6,14.0420829913093));
#1984=CARTESIAN_POINT('',(-6.34999979734421,27.6,14.2420829913093));
#1985=CARTESIAN_POINT('',(-6.54999979734421,27.8,14.0420829913093));
#1986=CARTESIAN_POINT('Origin',(-6.34999979734421,27.6,14.0420829913093));
#1987=CARTESIAN_POINT('',(-10.9499997973442,27.8,14.0420829913093));
#1988=CARTESIAN_POINT('',(-5.9749998986721,27.8,14.0420829913093));
#1989=CARTESIAN_POINT('',(-11.1499997973442,27.6,14.2420829913093));
#1990=CARTESIAN_POINT('Origin',(-11.1499997973442,27.6,14.0420829913093));
#1991=CARTESIAN_POINT('',(-5.9749998986721,27.6,14.2420829913093));
#1992=CARTESIAN_POINT('Origin',(-11.4499997973442,27.3,6.72104149565467));
#1993=CARTESIAN_POINT('',(-10.9499997973442,27.8,13.6420829913093));
#1994=CARTESIAN_POINT('',(-10.9499997973442,27.8,6.72104149565467));
#1995=CARTESIAN_POINT('',(-11.1499997973442,27.6,13.4420829913093));
#1996=CARTESIAN_POINT('Origin',(-11.1499997973442,27.6,13.6420829913093));
#1997=CARTESIAN_POINT('',(-11.9499997973442,26.8,13.4420829913093));
#1998=CARTESIAN_POINT('',(-9.8499997973442,28.9,13.4420829913093));
#1999=CARTESIAN_POINT('',(-11.9499997973442,26.8,14.2420829913093));
#2000=CARTESIAN_POINT('',(-11.9499997973442,26.8,6.72104149565467));
#2001=CARTESIAN_POINT('',(-11.4499997973442,27.3,14.2420829913093));
#2002=CARTESIAN_POINT('Origin',(0.,27.8,0.));
#2003=CARTESIAN_POINT('',(-6.54999979734421,27.8,13.6420829913093));
#2004=CARTESIAN_POINT('',(-6.54999979734421,27.8,7.12104149565467));
#2005=CARTESIAN_POINT('',(-2.7749998986721,27.8,13.6420829913093));
#2006=CARTESIAN_POINT('Origin',(-2.7749998986721,27.6,13.6420829913093));
#2007=CARTESIAN_POINT('',(-6.34999979734421,27.6,13.4420829913093));
#2008=CARTESIAN_POINT('Origin',(-6.34999979734421,27.6,13.6420829913093));
#2009=CARTESIAN_POINT('',(-2.7749998986721,27.6,13.4420829913093));
#2010=CARTESIAN_POINT('Origin',(-5.975,27.6,7.75207479133359));
#2011=CARTESIAN_POINT('',(-6.35,27.6,7.95207479133359));
#2012=CARTESIAN_POINT('',(-6.55,27.8,7.75207479133359));
#2013=CARTESIAN_POINT('Origin',(-6.35,27.6,7.75207479133359));
#2014=CARTESIAN_POINT('',(-10.95,27.8,7.75207479133359));
#2015=CARTESIAN_POINT('',(-5.975,27.8,7.75207479133359));
#2016=CARTESIAN_POINT('',(-11.15,27.6,7.95207479133359));
#2017=CARTESIAN_POINT('Origin',(-11.15,27.6,7.75207479133359));
#2018=CARTESIAN_POINT('',(-5.975,27.6,7.95207479133359));
#2019=CARTESIAN_POINT('Origin',(0.,27.8,0.));
#2020=CARTESIAN_POINT('',(-6.55,27.8,7.35207479133359));
#2021=CARTESIAN_POINT('',(-6.55,27.8,3.97603739566679));
#2022=CARTESIAN_POINT('',(-10.95,27.8,7.35207479133359));
#2023=CARTESIAN_POINT('',(-2.775,27.8,7.35207479133359));
#2024=CARTESIAN_POINT('',(-10.95,27.8,3.57603739566679));
#2025=CARTESIAN_POINT('Origin',(-6.05,27.3,3.97603739566679));
#2026=CARTESIAN_POINT('',(-5.55,26.8,7.95207479133359));
#2027=CARTESIAN_POINT('',(-7.65,28.9,7.95207479133359));
#2028=CARTESIAN_POINT('',(-5.55,26.8,7.15207479133359));
#2029=CARTESIAN_POINT('',(-5.55,26.8,3.97603739566679));
#2030=CARTESIAN_POINT('',(-6.35,27.6,7.15207479133359));
#2031=CARTESIAN_POINT('',(-6.05,27.3,7.15207479133359));
#2032=CARTESIAN_POINT('Origin',(-6.35,27.6,7.35207479133359));
#2033=CARTESIAN_POINT('Origin',(-2.775,27.6,7.35207479133359));
#2034=CARTESIAN_POINT('',(-11.15,27.6,7.15207479133359));
#2035=CARTESIAN_POINT('Origin',(-11.15,27.6,7.35207479133359));
#2036=CARTESIAN_POINT('',(-2.775,27.6,7.15207479133359));
#2037=CARTESIAN_POINT('Origin',(-5.55,27.8,7.15207479133359));
#2038=CARTESIAN_POINT('',(-5.55,10.8,7.15207479133359));
#2039=CARTESIAN_POINT('',(-5.55,27.8,7.15207479133359));
#2040=CARTESIAN_POINT('',(-11.95,10.8,7.15207479133359));
#2041=CARTESIAN_POINT('',(-5.55,10.8,7.15207479133359));
#2042=CARTESIAN_POINT('',(-11.95,26.8,7.15207479133359));
#2043=CARTESIAN_POINT('',(-11.95,27.8,7.15207479133359));
#2044=CARTESIAN_POINT('',(-9.84999999999999,28.9,7.15207479133359));
#2045=CARTESIAN_POINT('Origin',(-5.54999979734421,27.8,13.4420829913093));
#2046=CARTESIAN_POINT('',(-5.54999979734421,26.8,13.4420829913093));
#2047=CARTESIAN_POINT('',(-6.04999979734421,27.3,13.4420829913093));
#2048=CARTESIAN_POINT('',(-5.54999979734421,10.8,13.4420829913093));
#2049=CARTESIAN_POINT('',(-5.54999979734421,27.8,13.4420829913093));
#2050=CARTESIAN_POINT('',(-11.9499997973442,10.8,13.4420829913093));
#2051=CARTESIAN_POINT('',(-11.9499997973442,10.8,13.4420829913093));
#2052=CARTESIAN_POINT('',(-11.9499997973442,27.8,13.4420829913093));
#2053=CARTESIAN_POINT('Origin',(-6.04999979734421,27.3,7.12104149565467));
#2054=CARTESIAN_POINT('',(-5.54999979734421,26.8,14.2420829913093));
#2055=CARTESIAN_POINT('',(-7.64999979734421,28.9,14.2420829913093));
#2056=CARTESIAN_POINT('',(-5.54999979734421,26.8,7.12104149565467));
#2057=CARTESIAN_POINT('Origin',(-11.95,27.8,7.95207479133359));
#2058=CARTESIAN_POINT('',(-11.95,26.8,7.95207479133359));
#2059=CARTESIAN_POINT('',(-11.45,27.3,7.95207479133359));
#2060=CARTESIAN_POINT('',(-11.95,10.8,7.95207479133359));
#2061=CARTESIAN_POINT('',(-11.95,27.8,7.95207479133359));
#2062=CARTESIAN_POINT('',(-5.55,10.8,7.95207479133359));
#2063=CARTESIAN_POINT('',(-11.95,10.8,7.95207479133359));
#2064=CARTESIAN_POINT('',(-5.55,27.8,7.95207479133359));
#2065=CARTESIAN_POINT('Origin',(-11.45,27.3,3.57603739566679));
#2066=CARTESIAN_POINT('',(-11.95,26.8,3.57603739566679));
#2067=CARTESIAN_POINT('Origin',(-11.3410683195312,27.8,0.0664775614139138));
#2068=CARTESIAN_POINT('',(-11.3410683195312,26.8,0.0664775614139138));
#2069=CARTESIAN_POINT('',(-11.3410683195312,27.3,-0.433522438586085));
#2070=CARTESIAN_POINT('',(-11.3410683195312,10.8,0.0664775614139138));
#2071=CARTESIAN_POINT('',(-11.3410683195312,27.8,0.0664775614139138));
#2072=CARTESIAN_POINT('',(-11.3410683195312,10.8,-6.33352243858609));
#2073=CARTESIAN_POINT('',(-11.3410683195312,10.8,0.0664775614139138));
#2074=CARTESIAN_POINT('',(-11.3410683195312,27.8,-6.33352243858609));
#2075=CARTESIAN_POINT('Origin',(-6.07053415976558,27.3,-0.433522438586086));
#2076=CARTESIAN_POINT('',(-6.07053415976558,26.8,0.0664775614139138));
#2077=CARTESIAN_POINT('Origin',(-5.55,27.8,7.95207479133359));
#2078=CARTESIAN_POINT('',(-5.55,10.8,7.95207479133359));
#2079=CARTESIAN_POINT('Origin',(-11.95,27.8,7.15207479133359));
#2080=CARTESIAN_POINT('',(-11.95,10.8,7.15207479133359));
#2081=CARTESIAN_POINT('Origin',(-12.75,27.8,9.2));
#2082=CARTESIAN_POINT('',(-12.75,27.8,9.2));
#2083=CARTESIAN_POINT('',(-12.75,27.8,6.2));
#2084=CARTESIAN_POINT('',(-12.75,27.8,4.6));
#2085=CARTESIAN_POINT('',(-12.75,10.8,9.2));
#2086=CARTESIAN_POINT('',(-12.75,27.8,9.2));
#2087=CARTESIAN_POINT('',(-12.75,10.8,6.2));
#2088=CARTESIAN_POINT('',(-12.75,10.8,9.2));
#2089=CARTESIAN_POINT('',(-12.75,27.8,6.2));
#2090=CARTESIAN_POINT('Origin',(-4.75,27.8,9.2));
#2091=CARTESIAN_POINT('',(-4.75,27.8,9.2));
#2092=CARTESIAN_POINT('',(-2.375,27.8,9.2));
#2093=CARTESIAN_POINT('',(-4.75,10.8,9.2));
#2094=CARTESIAN_POINT('',(-4.75,27.8,9.2));
#2095=CARTESIAN_POINT('',(-4.75,10.8,9.2));
#2096=CARTESIAN_POINT('Origin',(-4.75,27.8,6.2));
#2097=CARTESIAN_POINT('',(-4.75,27.8,6.2));
#2098=CARTESIAN_POINT('',(-4.75,27.8,3.1));
#2099=CARTESIAN_POINT('',(-4.75,10.8,6.2));
#2100=CARTESIAN_POINT('',(-4.75,27.8,6.2));
#2101=CARTESIAN_POINT('',(-4.75,10.8,6.2));
#2102=CARTESIAN_POINT('Origin',(-12.75,27.8,6.2));
#2103=CARTESIAN_POINT('',(-6.375,27.8,6.2));
#2104=CARTESIAN_POINT('',(-12.75,10.8,6.2));
#2105=CARTESIAN_POINT('Origin',(-8.75,10.8,7.7));
#2106=CARTESIAN_POINT('Origin',(-11.9499997973442,27.8,13.4420829913093));
#2107=CARTESIAN_POINT('',(-11.9499997973442,10.8,14.2420829913093));
#2108=CARTESIAN_POINT('',(-11.9499997973442,10.8,14.2420829913093));
#2109=CARTESIAN_POINT('',(-11.9499997973442,27.8,14.2420829913093));
#2110=CARTESIAN_POINT('Origin',(-5.54999979734421,27.8,14.2420829913093));
#2111=CARTESIAN_POINT('',(-5.54999979734421,10.8,14.2420829913093));
#2112=CARTESIAN_POINT('',(-5.54999979734421,27.8,14.2420829913093));
#2113=CARTESIAN_POINT('',(-5.54999979734421,10.8,13.4420829913093));
#2114=CARTESIAN_POINT('Origin',(-11.9499997973442,27.8,14.2420829913093));
#2115=CARTESIAN_POINT('',(-5.54999979734421,10.8,14.2420829913093));
#2116=CARTESIAN_POINT('Origin',(-12.75,27.8,15.2));
#2117=CARTESIAN_POINT('',(-12.75,27.8,15.2));
#2118=CARTESIAN_POINT('',(-12.7499997973442,27.8,12.2));
#2119=CARTESIAN_POINT('',(-12.7499994866053,27.8,7.59999956935649));
#2120=CARTESIAN_POINT('',(-12.75,10.8,15.2));
#2121=CARTESIAN_POINT('',(-12.75,27.8,15.2));
#2122=CARTESIAN_POINT('',(-12.7499997973442,10.8,12.2));
#2123=CARTESIAN_POINT('',(-12.75,10.8,15.2));
#2124=CARTESIAN_POINT('',(-12.7499997973442,27.8,12.2));
#2125=CARTESIAN_POINT('Origin',(-4.74999979734421,27.8,15.2));
#2126=CARTESIAN_POINT('',(-4.74999979734421,27.8,15.2));
#2127=CARTESIAN_POINT('',(-2.37499989867211,27.8,15.2));
#2128=CARTESIAN_POINT('',(-4.74999979734421,10.8,15.2));
#2129=CARTESIAN_POINT('',(-4.74999979734421,27.8,15.2));
#2130=CARTESIAN_POINT('',(-4.74999979734421,10.8,15.2));
#2131=CARTESIAN_POINT('Origin',(-4.74999979734421,27.8,12.2));
#2132=CARTESIAN_POINT('',(-4.74999979734421,27.8,12.2));
#2133=CARTESIAN_POINT('',(-4.74999979734421,27.8,6.1));
#2134=CARTESIAN_POINT('',(-4.74999979734421,10.8,12.2));
#2135=CARTESIAN_POINT('',(-4.74999979734421,27.8,12.2));
#2136=CARTESIAN_POINT('',(-4.74999979734421,10.8,12.2));
#2137=CARTESIAN_POINT('Origin',(-12.7499997973442,27.8,12.2));
#2138=CARTESIAN_POINT('',(-6.37499989867211,27.8,12.2));
#2139=CARTESIAN_POINT('',(-12.7499997973442,10.8,12.2));
#2140=CARTESIAN_POINT('Origin',(-8.74999989867211,10.8,13.7));
#2141=CARTESIAN_POINT('Origin',(-11.3410683195312,27.8,-6.33352243858609));
#2142=CARTESIAN_POINT('',(-11.3410683195312,10.8,-6.33352243858609));
#2143=CARTESIAN_POINT('Origin',(-12.1410683195312,27.8,0.0664775614139138));
#2144=CARTESIAN_POINT('',(-12.1410683195312,10.8,0.0664775614139138));
#2145=CARTESIAN_POINT('Origin',(-13.25,27.8,0.866477561413912));
#2146=CARTESIAN_POINT('',(-13.25,27.8,0.866477561413912));
#2147=CARTESIAN_POINT('',(-13.25,27.8,-7.13352243858609));
#2148=CARTESIAN_POINT('',(-13.25,27.8,0.433238780706956));
#2149=CARTESIAN_POINT('',(-13.25,10.8,0.866477561413912));
#2150=CARTESIAN_POINT('',(-13.25,27.8,0.866477561413912));
#2151=CARTESIAN_POINT('',(-13.25,10.8,-7.13352243858609));
#2152=CARTESIAN_POINT('',(-13.25,10.8,0.866477561413912));
#2153=CARTESIAN_POINT('',(-13.25,27.8,-7.13352243858609));
#2154=CARTESIAN_POINT('Origin',(-10.2499999552965,27.8,0.866477561413912));
#2155=CARTESIAN_POINT('',(-10.2499999552965,27.8,0.866477561413912));
#2156=CARTESIAN_POINT('',(-5.12499997764826,27.8,0.866477561413912));
#2157=CARTESIAN_POINT('',(-10.2499999552965,10.8,0.866477561413912));
#2158=CARTESIAN_POINT('',(-10.2499999552965,27.8,0.866477561413912));
#2159=CARTESIAN_POINT('',(-10.2499999552965,10.8,0.866477561413912));
#2160=CARTESIAN_POINT('Origin',(-10.2499999552965,27.8,-7.13352243858609));
#2161=CARTESIAN_POINT('',(-10.2499999552965,27.8,-7.13352243858609));
#2162=CARTESIAN_POINT('',(-10.2499999552965,27.8,-3.56676121929304));
#2163=CARTESIAN_POINT('',(-10.2499999552965,10.8,-7.13352243858609));
#2164=CARTESIAN_POINT('',(-10.2499999552965,27.8,-7.13352243858609));
#2165=CARTESIAN_POINT('',(-10.2499999552965,10.8,-7.13352243858609));
#2166=CARTESIAN_POINT('Origin',(-13.25,27.8,-7.13352243858609));
#2167=CARTESIAN_POINT('',(-6.625,27.8,-7.13352243858609));
#2168=CARTESIAN_POINT('',(-13.25,10.8,-7.13352243858609));
#2169=CARTESIAN_POINT('Origin',(-11.7499999776483,10.8,-3.13352243858609));
#2170=CARTESIAN_POINT('Origin',(0.,27.8,0.));
#2171=CARTESIAN_POINT('',(-13.75,27.8,16.2));
#2172=CARTESIAN_POINT('',(-13.75,27.8,16.2));
#2173=CARTESIAN_POINT('',(13.75,27.8,16.2));
#2174=CARTESIAN_POINT('',(13.75,27.8,16.2));
#2175=CARTESIAN_POINT('',(13.75,27.8,-16.2));
#2176=CARTESIAN_POINT('Origin',(13.75,0.,16.2));
#2177=CARTESIAN_POINT('',(13.75,0.,16.2));
#2178=CARTESIAN_POINT('',(13.75,0.,-16.2));
#2179=CARTESIAN_POINT('',(13.75,0.,16.2));
#2180=CARTESIAN_POINT('Origin',(-13.75,0.,16.2));
#2181=CARTESIAN_POINT('',(-13.75,0.,16.2));
#2182=CARTESIAN_POINT('',(13.75,0.,16.2));
#2183=CARTESIAN_POINT('',(-13.75,0.,16.2));
#2184=CARTESIAN_POINT('Origin',(-13.75,0.,-16.2));
#2185=CARTESIAN_POINT('',(-13.75,0.,16.2));
#2186=CARTESIAN_POINT('Origin',(0.,0.,0.));
#2187=CARTESIAN_POINT('',(0.,0.,0.));
#2188=UNCERTAINTY_MEASURE_WITH_UNIT(LENGTH_MEASURE(0.01),#2194,
'DISTANCE_ACCURACY_VALUE',
'Maximum model space distance between geometric entities at asserted c
onnectivities');
#2189=UNCERTAINTY_MEASURE_WITH_UNIT(LENGTH_MEASURE(0.01),#2194,
'DISTANCE_ACCURACY_VALUE',
'Maximum model space distance between geometric entities at asserted c
onnectivities');
#2190=UNCERTAINTY_MEASURE_WITH_UNIT(LENGTH_MEASURE(0.01),#2194,
'DISTANCE_ACCURACY_VALUE',
'Maximum model space distance between geometric entities at asserted c
onnectivities');
#2191=(
GEOMETRIC_REPRESENTATION_CONTEXT(3)
GLOBAL_UNCERTAINTY_ASSIGNED_CONTEXT((#2188))
GLOBAL_UNIT_ASSIGNED_CONTEXT((#2194,#2196,#2197))
REPRESENTATION_CONTEXT('','3D')
);
#2192=(
GEOMETRIC_REPRESENTATION_CONTEXT(3)
GLOBAL_UNCERTAINTY_ASSIGNED_CONTEXT((#2189))
GLOBAL_UNIT_ASSIGNED_CONTEXT((#2194,#2196,#2197))
REPRESENTATION_CONTEXT('','3D')
);
#2193=(
GEOMETRIC_REPRESENTATION_CONTEXT(3)
GLOBAL_UNCERTAINTY_ASSIGNED_CONTEXT((#2190))
GLOBAL_UNIT_ASSIGNED_CONTEXT((#2194,#2196,#2197))
REPRESENTATION_CONTEXT('','3D')
);
#2194=(
LENGTH_UNIT()
NAMED_UNIT(*)
SI_UNIT(.MILLI.,.METRE.)
);
#2195=(
LENGTH_UNIT()
NAMED_UNIT(*)
SI_UNIT($,.METRE.)
);
#2196=(
NAMED_UNIT(*)
PLANE_ANGLE_UNIT()
SI_UNIT($,.RADIAN.)
);
#2197=(
NAMED_UNIT(*)
SI_UNIT($,.STERADIAN.)
SOLID_ANGLE_UNIT()
);
#2198=SHAPE_DEFINITION_REPRESENTATION(#2200,#2203);
#2199=SHAPE_DEFINITION_REPRESENTATION(#2201,#2204);
#2200=PRODUCT_DEFINITION_SHAPE('',$,#2206);
#2201=PRODUCT_DEFINITION_SHAPE('',$,#2207);
#2202=PRODUCT_DEFINITION_SHAPE($,$,#14);
#2203=SHAPE_REPRESENTATION('',(#1259,#1368),#2191);
#2204=SHAPE_REPRESENTATION('',(#1260),#2192);
#2205=PRODUCT_DEFINITION_CONTEXT('part definition',#2213,'design');
#2206=PRODUCT_DEFINITION('(Unsaved)','(Unsaved)',#2208,#2205);
#2207=PRODUCT_DEFINITION('Component1','Component1',#2209,#2205);
#2208=PRODUCT_DEFINITION_FORMATION('',$,#2215);
#2209=PRODUCT_DEFINITION_FORMATION('',$,#2216);
#2210=PRODUCT_RELATED_PRODUCT_CATEGORY('(Unsaved)','(Unsaved)',(#2215));
#2211=PRODUCT_RELATED_PRODUCT_CATEGORY('Component1','Component1',(#2216));
#2212=APPLICATION_PROTOCOL_DEFINITION('international standard',
'ap242_managed_model_based_3d_engineering',2011,#2213);
#2213=APPLICATION_CONTEXT('Managed model based 3d engineering');
#2214=PRODUCT_CONTEXT('part definition',#2213,'mechanical');
#2215=PRODUCT('(Unsaved)','(Unsaved)',$,(#2214));
#2216=PRODUCT('Component1','Component1',$,(#2214));
#2217=PRESENTATION_STYLE_ASSIGNMENT((#2220));
#2218=PRESENTATION_STYLE_ASSIGNMENT((#2221));
#2219=PRESENTATION_STYLE_ASSIGNMENT((#2222));
#2220=SURFACE_STYLE_USAGE(.BOTH.,#2223);
#2221=SURFACE_STYLE_USAGE(.BOTH.,#2224);
#2222=SURFACE_STYLE_USAGE(.BOTH.,#2225);
#2223=SURFACE_SIDE_STYLE('',(#2226));
#2224=SURFACE_SIDE_STYLE('',(#2227));
#2225=SURFACE_SIDE_STYLE('',(#2228));
#2226=SURFACE_STYLE_FILL_AREA(#2229);
#2227=SURFACE_STYLE_FILL_AREA(#2230);
#2228=SURFACE_STYLE_FILL_AREA(#2231);
#2229=FILL_AREA_STYLE('Steel - Satin',(#2232));
#2230=FILL_AREA_STYLE(
'EPX 150 - Air Baked (with Carbon M2 M3 L1 3D Printers)',(#2233));
#2231=FILL_AREA_STYLE('Silver - Polished',(#2234));
#2232=FILL_AREA_STYLE_COLOUR('Steel - Satin',#2235);
#2233=FILL_AREA_STYLE_COLOUR(
'EPX 150 - Air Baked (with Carbon M2 M3 L1 3D Printers)',#2236);
#2234=FILL_AREA_STYLE_COLOUR('Silver - Polished',#2237);
#2235=COLOUR_RGB('Steel - Satin',0.627450980392157,0.627450980392157,0.627450980392157);
#2236=COLOUR_RGB(
'EPX 150 - Air Baked (with Carbon M2 M3 L1 3D Printers)',0.247058823529412,
0.247058823529412,0.247058823529412);
#2237=COLOUR_RGB('Silver - Polished',0.984313725490196,0.980392156862745,
0.96078431372549);
ENDSEC;
END-ISO-10303-21;
